<?xml version="1.0"?>
<!-- Generated by SVGo -->
<svg width="223mm" height="176mm"
     viewBox="0 0 223000 176000"
     xmlns="http://www.w3.org/2000/svg" 
     xmlns:xlink="http://www.w3.org/1999/xlink">
<g style="fill:none; stroke-width:100; stroke:lightgrey">
<line x1="0" y1="3000" x2="0" y2="173000" />
<line x1="5000" y1="3000" x2="5000" y2="173000" />
<line x1="10000" y1="3000" x2="10000" y2="173000" />
<line x1="15000" y1="3000" x2="15000" y2="173000" />
<line x1="20000" y1="3000" x2="20000" y2="173000" />
<line x1="25000" y1="3000" x2="25000" y2="173000" />
<line x1="30000" y1="3000" x2="30000" y2="173000" />
<line x1="35000" y1="3000" x2="35000" y2="173000" />
<line x1="40000" y1="3000" x2="40000" y2="173000" />
<line x1="45000" y1="3000" x2="45000" y2="173000" />
<line x1="50000" y1="3000" x2="50000" y2="173000" />
<line x1="55000" y1="3000" x2="55000" y2="173000" />
<line x1="60000" y1="3000" x2="60000" y2="173000" />
<line x1="65000" y1="3000" x2="65000" y2="173000" />
<line x1="70000" y1="3000" x2="70000" y2="173000" />
<line x1="75000" y1="3000" x2="75000" y2="173000" />
<line x1="80000" y1="3000" x2="80000" y2="173000" />
<line x1="85000" y1="3000" x2="85000" y2="173000" />
<line x1="90000" y1="3000" x2="90000" y2="173000" />
<line x1="95000" y1="3000" x2="95000" y2="173000" />
<line x1="100000" y1="3000" x2="100000" y2="173000" />
<line x1="105000" y1="3000" x2="105000" y2="173000" />
<line x1="110000" y1="3000" x2="110000" y2="173000" />
<line x1="115000" y1="3000" x2="115000" y2="173000" />
<line x1="120000" y1="3000" x2="120000" y2="173000" />
<line x1="125000" y1="3000" x2="125000" y2="173000" />
<line x1="130000" y1="3000" x2="130000" y2="173000" />
<line x1="135000" y1="3000" x2="135000" y2="173000" />
<line x1="140000" y1="3000" x2="140000" y2="173000" />
<line x1="145000" y1="3000" x2="145000" y2="173000" />
<line x1="150000" y1="3000" x2="150000" y2="173000" />
<line x1="155000" y1="3000" x2="155000" y2="173000" />
<line x1="160000" y1="3000" x2="160000" y2="173000" />
<line x1="165000" y1="3000" x2="165000" y2="173000" />
<line x1="170000" y1="3000" x2="170000" y2="173000" />
<line x1="175000" y1="3000" x2="175000" y2="173000" />
<line x1="180000" y1="3000" x2="180000" y2="173000" />
<line x1="185000" y1="3000" x2="185000" y2="173000" />
<line x1="190000" y1="3000" x2="190000" y2="173000" />
<line x1="195000" y1="3000" x2="195000" y2="173000" />
<line x1="200000" y1="3000" x2="200000" y2="173000" />
<line x1="205000" y1="3000" x2="205000" y2="173000" />
<line x1="210000" y1="3000" x2="210000" y2="173000" />
<line x1="215000" y1="3000" x2="215000" y2="173000" />
<line x1="220000" y1="3000" x2="220000" y2="173000" />
<line x1="0" y1="3000" x2="223000" y2="3000" />
<line x1="0" y1="8000" x2="223000" y2="8000" />
<line x1="0" y1="13000" x2="223000" y2="13000" />
<line x1="0" y1="18000" x2="223000" y2="18000" />
<line x1="0" y1="23000" x2="223000" y2="23000" />
<line x1="0" y1="28000" x2="223000" y2="28000" />
<line x1="0" y1="33000" x2="223000" y2="33000" />
<line x1="0" y1="38000" x2="223000" y2="38000" />
<line x1="0" y1="43000" x2="223000" y2="43000" />
<line x1="0" y1="48000" x2="223000" y2="48000" />
<line x1="0" y1="53000" x2="223000" y2="53000" />
<line x1="0" y1="58000" x2="223000" y2="58000" />
<line x1="0" y1="63000" x2="223000" y2="63000" />
<line x1="0" y1="68000" x2="223000" y2="68000" />
<line x1="0" y1="73000" x2="223000" y2="73000" />
<line x1="0" y1="78000" x2="223000" y2="78000" />
<line x1="0" y1="83000" x2="223000" y2="83000" />
<line x1="0" y1="88000" x2="223000" y2="88000" />
<line x1="0" y1="93000" x2="223000" y2="93000" />
<line x1="0" y1="98000" x2="223000" y2="98000" />
<line x1="0" y1="103000" x2="223000" y2="103000" />
<line x1="0" y1="108000" x2="223000" y2="108000" />
<line x1="0" y1="113000" x2="223000" y2="113000" />
<line x1="0" y1="118000" x2="223000" y2="118000" />
<line x1="0" y1="123000" x2="223000" y2="123000" />
<line x1="0" y1="128000" x2="223000" y2="128000" />
<line x1="0" y1="133000" x2="223000" y2="133000" />
<line x1="0" y1="138000" x2="223000" y2="138000" />
<line x1="0" y1="143000" x2="223000" y2="143000" />
<line x1="0" y1="148000" x2="223000" y2="148000" />
<line x1="0" y1="153000" x2="223000" y2="153000" />
<line x1="0" y1="158000" x2="223000" y2="158000" />
<line x1="0" y1="163000" x2="223000" y2="163000" />
<line x1="0" y1="168000" x2="223000" y2="168000" />
<line x1="0" y1="173000" x2="223000" y2="173000" />
</g>
<g transform="translate(35000, 88000)">
<circle cx="0" cy="0" r="23333" style="fill:none; stroke-width:100; stroke:black; stroke-dasharray:3000,1000,1000,1000"/>
<line x1="-7500" y1="0" x2="7500" y2="0" style="fill:none; stroke-width:250; stroke:black"/>
<line x1="0" y1="-7500" x2="0" y2="7500" style="fill:none; stroke-width:250; stroke:black"/>
<g transform="rotate(0.000)">
<line x1="14999" y1="0" x2="30000" y2="0" style="fill:none; stroke-width:100; stroke:black; stroke-dasharray:3000,1000,1000,1000"/>
<g transform="rotate(0.000000)">
<g transform="rotate(-14.5746)">
<polyline points="14999,0 21147,0 21235,5 21324,15 21412,28 21501,43 21589,61 21678,80 21766,101 21855,124 21943,148 22031,174 22120,201 22208,230 22296,260 22384,291 22472,324 22560,358 22648,393 22736,429 22824,466 22912,504 22999,544 23087,584 23174,626 23262,669 23349,712 23436,757 23523,803 23610,850 23697,897 23784,946 23870,996 23957,1046 24043,1098 24129,1151 24215,1204 24301,1259 24387,1314 24472,1370 24558,1427 24643,1486 24728,1545 24813,1605 24898,1665 24982,1727 25067,1790 25151,1853 25235,1917 25318,1982 25402,2049 25485,2115 25569,2183 25651,2252 25734,2321 25817,2391 25899,2463 25981,2535 26063,2607 26144,2681 26225,2755 26306,2831 26387,2907 26468,2984 26548,3061 26628,3140 26708,3219 26787,3299 26866,3380 26945,3462 27024,3544 27102,3628 27180,3712 27258,3796 27335,3882 27412,3968 27489,4056 27565,4144 27641,4232 27717,4322 27792,4412 27867,4503 27942,4595 28016,4687 28091,4781 28164,4875 28238,4970 28310,5065 28383,5161 28455,5258 28527,5356 28599,5455 28670,5554 28740,5654 28811,5755 28880,5856 28950,5958 29019,6061 29088,6165 29156,6269 29224,6374 29291,6480" style="fill:none; stroke-width:250; stroke:black"/>
</g>
<g transform="rotate(14.5746)">
<polyline points="14999,0 21147,0 21235,-5 21324,-15 21412,-28 21501,-43 21589,-61 21678,-80 21766,-101 21855,-124 21943,-148 22031,-174 22120,-201 22208,-230 22296,-260 22384,-291 22472,-324 22560,-358 22648,-393 22736,-429 22824,-466 22912,-504 22999,-544 23087,-584 23174,-626 23262,-669 23349,-712 23436,-757 23523,-803 23610,-850 23697,-897 23784,-946 23870,-996 23957,-1046 24043,-1098 24129,-1151 24215,-1204 24301,-1259 24387,-1314 24472,-1370 24558,-1427 24643,-1486 24728,-1545 24813,-1605 24898,-1665 24982,-1727 25067,-1790 25151,-1853 25235,-1917 25318,-1982 25402,-2049 25485,-2115 25569,-2183 25651,-2252 25734,-2321 25817,-2391 25899,-2463 25981,-2535 26063,-2607 26144,-2681 26225,-2755 26306,-2831 26387,-2907 26468,-2984 26548,-3061 26628,-3140 26708,-3219 26787,-3299 26866,-3380 26945,-3462 27024,-3544 27102,-3628 27180,-3712 27258,-3796 27335,-3882 27412,-3968 27489,-4056 27565,-4144 27641,-4232 27717,-4322 27792,-4412 27867,-4503 27942,-4595 28016,-4687 28091,-4781 28164,-4875 28238,-4970 28310,-5065 28383,-5161 28455,-5258 28527,-5356 28599,-5455 28670,-5554 28740,-5654 28811,-5755 28880,-5856 28950,-5958 29019,-6061 29088,-6165 29156,-6269 29224,-6374 29291,-6480" style="fill:none; stroke-width:250; stroke:black"/>
</g>
<path d="M29979,-1099 A30000,30000 0 0 1 29979,1099" style="fill:none; stroke-width:250; stroke:black"/>
<path d="M14516,3774 A14999,14999 0 0 1 12001,8996" style="fill:none; stroke-width:250; stroke:black"/>
</g>
<line x1="9352" y1="11727" x2="18704" y2="23454" style="fill:none; stroke-width:100; stroke:black; stroke-dasharray:3000,1000,1000,1000"/>
<g transform="rotate(51.428571)">
<g transform="rotate(-14.5746)">
<polyline points="14999,0 21147,0 21235,5 21324,15 21412,28 21501,43 21589,61 21678,80 21766,101 21855,124 21943,148 22031,174 22120,201 22208,230 22296,260 22384,291 22472,324 22560,358 22648,393 22736,429 22824,466 22912,504 22999,544 23087,584 23174,626 23262,669 23349,712 23436,757 23523,803 23610,850 23697,897 23784,946 23870,996 23957,1046 24043,1098 24129,1151 24215,1204 24301,1259 24387,1314 24472,1370 24558,1427 24643,1486 24728,1545 24813,1605 24898,1665 24982,1727 25067,1790 25151,1853 25235,1917 25318,1982 25402,2049 25485,2115 25569,2183 25651,2252 25734,2321 25817,2391 25899,2463 25981,2535 26063,2607 26144,2681 26225,2755 26306,2831 26387,2907 26468,2984 26548,3061 26628,3140 26708,3219 26787,3299 26866,3380 26945,3462 27024,3544 27102,3628 27180,3712 27258,3796 27335,3882 27412,3968 27489,4056 27565,4144 27641,4232 27717,4322 27792,4412 27867,4503 27942,4595 28016,4687 28091,4781 28164,4875 28238,4970 28310,5065 28383,5161 28455,5258 28527,5356 28599,5455 28670,5554 28740,5654 28811,5755 28880,5856 28950,5958 29019,6061 29088,6165 29156,6269 29224,6374 29291,6480" style="fill:none; stroke-width:250; stroke:black"/>
</g>
<g transform="rotate(14.5746)">
<polyline points="14999,0 21147,0 21235,-5 21324,-15 21412,-28 21501,-43 21589,-61 21678,-80 21766,-101 21855,-124 21943,-148 22031,-174 22120,-201 22208,-230 22296,-260 22384,-291 22472,-324 22560,-358 22648,-393 22736,-429 22824,-466 22912,-504 22999,-544 23087,-584 23174,-626 23262,-669 23349,-712 23436,-757 23523,-803 23610,-850 23697,-897 23784,-946 23870,-996 23957,-1046 24043,-1098 24129,-1151 24215,-1204 24301,-1259 24387,-1314 24472,-1370 24558,-1427 24643,-1486 24728,-1545 24813,-1605 24898,-1665 24982,-1727 25067,-1790 25151,-1853 25235,-1917 25318,-1982 25402,-2049 25485,-2115 25569,-2183 25651,-2252 25734,-2321 25817,-2391 25899,-2463 25981,-2535 26063,-2607 26144,-2681 26225,-2755 26306,-2831 26387,-2907 26468,-2984 26548,-3061 26628,-3140 26708,-3219 26787,-3299 26866,-3380 26945,-3462 27024,-3544 27102,-3628 27180,-3712 27258,-3796 27335,-3882 27412,-3968 27489,-4056 27565,-4144 27641,-4232 27717,-4322 27792,-4412 27867,-4503 27942,-4595 28016,-4687 28091,-4781 28164,-4875 28238,-4970 28310,-5065 28383,-5161 28455,-5258 28527,-5356 28599,-5455 28670,-5554 28740,-5654 28811,-5755 28880,-5856 28950,-5958 29019,-6061 29088,-6165 29156,-6269 29224,-6374 29291,-6480" style="fill:none; stroke-width:250; stroke:black"/>
</g>
<path d="M29979,-1099 A30000,30000 0 0 1 29979,1099" style="fill:none; stroke-width:250; stroke:black"/>
<path d="M14516,3774 A14999,14999 0 0 1 12001,8996" style="fill:none; stroke-width:250; stroke:black"/>
</g>
<line x1="-3337" y1="14623" x2="-6675" y2="29247" style="fill:none; stroke-width:100; stroke:black; stroke-dasharray:3000,1000,1000,1000"/>
<g transform="rotate(102.857143)">
<g transform="rotate(-14.5746)">
<polyline points="14999,0 21147,0 21235,5 21324,15 21412,28 21501,43 21589,61 21678,80 21766,101 21855,124 21943,148 22031,174 22120,201 22208,230 22296,260 22384,291 22472,324 22560,358 22648,393 22736,429 22824,466 22912,504 22999,544 23087,584 23174,626 23262,669 23349,712 23436,757 23523,803 23610,850 23697,897 23784,946 23870,996 23957,1046 24043,1098 24129,1151 24215,1204 24301,1259 24387,1314 24472,1370 24558,1427 24643,1486 24728,1545 24813,1605 24898,1665 24982,1727 25067,1790 25151,1853 25235,1917 25318,1982 25402,2049 25485,2115 25569,2183 25651,2252 25734,2321 25817,2391 25899,2463 25981,2535 26063,2607 26144,2681 26225,2755 26306,2831 26387,2907 26468,2984 26548,3061 26628,3140 26708,3219 26787,3299 26866,3380 26945,3462 27024,3544 27102,3628 27180,3712 27258,3796 27335,3882 27412,3968 27489,4056 27565,4144 27641,4232 27717,4322 27792,4412 27867,4503 27942,4595 28016,4687 28091,4781 28164,4875 28238,4970 28310,5065 28383,5161 28455,5258 28527,5356 28599,5455 28670,5554 28740,5654 28811,5755 28880,5856 28950,5958 29019,6061 29088,6165 29156,6269 29224,6374 29291,6480" style="fill:none; stroke-width:250; stroke:black"/>
</g>
<g transform="rotate(14.5746)">
<polyline points="14999,0 21147,0 21235,-5 21324,-15 21412,-28 21501,-43 21589,-61 21678,-80 21766,-101 21855,-124 21943,-148 22031,-174 22120,-201 22208,-230 22296,-260 22384,-291 22472,-324 22560,-358 22648,-393 22736,-429 22824,-466 22912,-504 22999,-544 23087,-584 23174,-626 23262,-669 23349,-712 23436,-757 23523,-803 23610,-850 23697,-897 23784,-946 23870,-996 23957,-1046 24043,-1098 24129,-1151 24215,-1204 24301,-1259 24387,-1314 24472,-1370 24558,-1427 24643,-1486 24728,-1545 24813,-1605 24898,-1665 24982,-1727 25067,-1790 25151,-1853 25235,-1917 25318,-1982 25402,-2049 25485,-2115 25569,-2183 25651,-2252 25734,-2321 25817,-2391 25899,-2463 25981,-2535 26063,-2607 26144,-2681 26225,-2755 26306,-2831 26387,-2907 26468,-2984 26548,-3061 26628,-3140 26708,-3219 26787,-3299 26866,-3380 26945,-3462 27024,-3544 27102,-3628 27180,-3712 27258,-3796 27335,-3882 27412,-3968 27489,-4056 27565,-4144 27641,-4232 27717,-4322 27792,-4412 27867,-4503 27942,-4595 28016,-4687 28091,-4781 28164,-4875 28238,-4970 28310,-5065 28383,-5161 28455,-5258 28527,-5356 28599,-5455 28670,-5554 28740,-5654 28811,-5755 28880,-5856 28950,-5958 29019,-6061 29088,-6165 29156,-6269 29224,-6374 29291,-6480" style="fill:none; stroke-width:250; stroke:black"/>
</g>
<path d="M29979,-1099 A30000,30000 0 0 1 29979,1099" style="fill:none; stroke-width:250; stroke:black"/>
<path d="M14516,3774 A14999,14999 0 0 1 12001,8996" style="fill:none; stroke-width:250; stroke:black"/>
</g>
<line x1="-13514" y1="6508" x2="-27029" y2="13016" style="fill:none; stroke-width:100; stroke:black; stroke-dasharray:3000,1000,1000,1000"/>
<g transform="rotate(154.285714)">
<g transform="rotate(-14.5746)">
<polyline points="14999,0 21147,0 21235,5 21324,15 21412,28 21501,43 21589,61 21678,80 21766,101 21855,124 21943,148 22031,174 22120,201 22208,230 22296,260 22384,291 22472,324 22560,358 22648,393 22736,429 22824,466 22912,504 22999,544 23087,584 23174,626 23262,669 23349,712 23436,757 23523,803 23610,850 23697,897 23784,946 23870,996 23957,1046 24043,1098 24129,1151 24215,1204 24301,1259 24387,1314 24472,1370 24558,1427 24643,1486 24728,1545 24813,1605 24898,1665 24982,1727 25067,1790 25151,1853 25235,1917 25318,1982 25402,2049 25485,2115 25569,2183 25651,2252 25734,2321 25817,2391 25899,2463 25981,2535 26063,2607 26144,2681 26225,2755 26306,2831 26387,2907 26468,2984 26548,3061 26628,3140 26708,3219 26787,3299 26866,3380 26945,3462 27024,3544 27102,3628 27180,3712 27258,3796 27335,3882 27412,3968 27489,4056 27565,4144 27641,4232 27717,4322 27792,4412 27867,4503 27942,4595 28016,4687 28091,4781 28164,4875 28238,4970 28310,5065 28383,5161 28455,5258 28527,5356 28599,5455 28670,5554 28740,5654 28811,5755 28880,5856 28950,5958 29019,6061 29088,6165 29156,6269 29224,6374 29291,6480" style="fill:none; stroke-width:250; stroke:black"/>
</g>
<g transform="rotate(14.5746)">
<polyline points="14999,0 21147,0 21235,-5 21324,-15 21412,-28 21501,-43 21589,-61 21678,-80 21766,-101 21855,-124 21943,-148 22031,-174 22120,-201 22208,-230 22296,-260 22384,-291 22472,-324 22560,-358 22648,-393 22736,-429 22824,-466 22912,-504 22999,-544 23087,-584 23174,-626 23262,-669 23349,-712 23436,-757 23523,-803 23610,-850 23697,-897 23784,-946 23870,-996 23957,-1046 24043,-1098 24129,-1151 24215,-1204 24301,-1259 24387,-1314 24472,-1370 24558,-1427 24643,-1486 24728,-1545 24813,-1605 24898,-1665 24982,-1727 25067,-1790 25151,-1853 25235,-1917 25318,-1982 25402,-2049 25485,-2115 25569,-2183 25651,-2252 25734,-2321 25817,-2391 25899,-2463 25981,-2535 26063,-2607 26144,-2681 26225,-2755 26306,-2831 26387,-2907 26468,-2984 26548,-3061 26628,-3140 26708,-3219 26787,-3299 26866,-3380 26945,-3462 27024,-3544 27102,-3628 27180,-3712 27258,-3796 27335,-3882 27412,-3968 27489,-4056 27565,-4144 27641,-4232 27717,-4322 27792,-4412 27867,-4503 27942,-4595 28016,-4687 28091,-4781 28164,-4875 28238,-4970 28310,-5065 28383,-5161 28455,-5258 28527,-5356 28599,-5455 28670,-5554 28740,-5654 28811,-5755 28880,-5856 28950,-5958 29019,-6061 29088,-6165 29156,-6269 29224,-6374 29291,-6480" style="fill:none; stroke-width:250; stroke:black"/>
</g>
<path d="M29979,-1099 A30000,30000 0 0 1 29979,1099" style="fill:none; stroke-width:250; stroke:black"/>
<path d="M14516,3774 A14999,14999 0 0 1 12001,8996" style="fill:none; stroke-width:250; stroke:black"/>
</g>
<line x1="-13514" y1="-6508" x2="-27029" y2="-13016" style="fill:none; stroke-width:100; stroke:black; stroke-dasharray:3000,1000,1000,1000"/>
<g transform="rotate(205.714286)">
<g transform="rotate(-14.5746)">
<polyline points="14999,0 21147,0 21235,5 21324,15 21412,28 21501,43 21589,61 21678,80 21766,101 21855,124 21943,148 22031,174 22120,201 22208,230 22296,260 22384,291 22472,324 22560,358 22648,393 22736,429 22824,466 22912,504 22999,544 23087,584 23174,626 23262,669 23349,712 23436,757 23523,803 23610,850 23697,897 23784,946 23870,996 23957,1046 24043,1098 24129,1151 24215,1204 24301,1259 24387,1314 24472,1370 24558,1427 24643,1486 24728,1545 24813,1605 24898,1665 24982,1727 25067,1790 25151,1853 25235,1917 25318,1982 25402,2049 25485,2115 25569,2183 25651,2252 25734,2321 25817,2391 25899,2463 25981,2535 26063,2607 26144,2681 26225,2755 26306,2831 26387,2907 26468,2984 26548,3061 26628,3140 26708,3219 26787,3299 26866,3380 26945,3462 27024,3544 27102,3628 27180,3712 27258,3796 27335,3882 27412,3968 27489,4056 27565,4144 27641,4232 27717,4322 27792,4412 27867,4503 27942,4595 28016,4687 28091,4781 28164,4875 28238,4970 28310,5065 28383,5161 28455,5258 28527,5356 28599,5455 28670,5554 28740,5654 28811,5755 28880,5856 28950,5958 29019,6061 29088,6165 29156,6269 29224,6374 29291,6480" style="fill:none; stroke-width:250; stroke:black"/>
</g>
<g transform="rotate(14.5746)">
<polyline points="14999,0 21147,0 21235,-5 21324,-15 21412,-28 21501,-43 21589,-61 21678,-80 21766,-101 21855,-124 21943,-148 22031,-174 22120,-201 22208,-230 22296,-260 22384,-291 22472,-324 22560,-358 22648,-393 22736,-429 22824,-466 22912,-504 22999,-544 23087,-584 23174,-626 23262,-669 23349,-712 23436,-757 23523,-803 23610,-850 23697,-897 23784,-946 23870,-996 23957,-1046 24043,-1098 24129,-1151 24215,-1204 24301,-1259 24387,-1314 24472,-1370 24558,-1427 24643,-1486 24728,-1545 24813,-1605 24898,-1665 24982,-1727 25067,-1790 25151,-1853 25235,-1917 25318,-1982 25402,-2049 25485,-2115 25569,-2183 25651,-2252 25734,-2321 25817,-2391 25899,-2463 25981,-2535 26063,-2607 26144,-2681 26225,-2755 26306,-2831 26387,-2907 26468,-2984 26548,-3061 26628,-3140 26708,-3219 26787,-3299 26866,-3380 26945,-3462 27024,-3544 27102,-3628 27180,-3712 27258,-3796 27335,-3882 27412,-3968 27489,-4056 27565,-4144 27641,-4232 27717,-4322 27792,-4412 27867,-4503 27942,-4595 28016,-4687 28091,-4781 28164,-4875 28238,-4970 28310,-5065 28383,-5161 28455,-5258 28527,-5356 28599,-5455 28670,-5554 28740,-5654 28811,-5755 28880,-5856 28950,-5958 29019,-6061 29088,-6165 29156,-6269 29224,-6374 29291,-6480" style="fill:none; stroke-width:250; stroke:black"/>
</g>
<path d="M29979,-1099 A30000,30000 0 0 1 29979,1099" style="fill:none; stroke-width:250; stroke:black"/>
<path d="M14516,3774 A14999,14999 0 0 1 12001,8996" style="fill:none; stroke-width:250; stroke:black"/>
</g>
<line x1="-3337" y1="-14623" x2="-6675" y2="-29247" style="fill:none; stroke-width:100; stroke:black; stroke-dasharray:3000,1000,1000,1000"/>
<g transform="rotate(257.142857)">
<g transform="rotate(-14.5746)">
<polyline points="14999,0 21147,0 21235,5 21324,15 21412,28 21501,43 21589,61 21678,80 21766,101 21855,124 21943,148 22031,174 22120,201 22208,230 22296,260 22384,291 22472,324 22560,358 22648,393 22736,429 22824,466 22912,504 22999,544 23087,584 23174,626 23262,669 23349,712 23436,757 23523,803 23610,850 23697,897 23784,946 23870,996 23957,1046 24043,1098 24129,1151 24215,1204 24301,1259 24387,1314 24472,1370 24558,1427 24643,1486 24728,1545 24813,1605 24898,1665 24982,1727 25067,1790 25151,1853 25235,1917 25318,1982 25402,2049 25485,2115 25569,2183 25651,2252 25734,2321 25817,2391 25899,2463 25981,2535 26063,2607 26144,2681 26225,2755 26306,2831 26387,2907 26468,2984 26548,3061 26628,3140 26708,3219 26787,3299 26866,3380 26945,3462 27024,3544 27102,3628 27180,3712 27258,3796 27335,3882 27412,3968 27489,4056 27565,4144 27641,4232 27717,4322 27792,4412 27867,4503 27942,4595 28016,4687 28091,4781 28164,4875 28238,4970 28310,5065 28383,5161 28455,5258 28527,5356 28599,5455 28670,5554 28740,5654 28811,5755 28880,5856 28950,5958 29019,6061 29088,6165 29156,6269 29224,6374 29291,6480" style="fill:none; stroke-width:250; stroke:black"/>
</g>
<g transform="rotate(14.5746)">
<polyline points="14999,0 21147,0 21235,-5 21324,-15 21412,-28 21501,-43 21589,-61 21678,-80 21766,-101 21855,-124 21943,-148 22031,-174 22120,-201 22208,-230 22296,-260 22384,-291 22472,-324 22560,-358 22648,-393 22736,-429 22824,-466 22912,-504 22999,-544 23087,-584 23174,-626 23262,-669 23349,-712 23436,-757 23523,-803 23610,-850 23697,-897 23784,-946 23870,-996 23957,-1046 24043,-1098 24129,-1151 24215,-1204 24301,-1259 24387,-1314 24472,-1370 24558,-1427 24643,-1486 24728,-1545 24813,-1605 24898,-1665 24982,-1727 25067,-1790 25151,-1853 25235,-1917 25318,-1982 25402,-2049 25485,-2115 25569,-2183 25651,-2252 25734,-2321 25817,-2391 25899,-2463 25981,-2535 26063,-2607 26144,-2681 26225,-2755 26306,-2831 26387,-2907 26468,-2984 26548,-3061 26628,-3140 26708,-3219 26787,-3299 26866,-3380 26945,-3462 27024,-3544 27102,-3628 27180,-3712 27258,-3796 27335,-3882 27412,-3968 27489,-4056 27565,-4144 27641,-4232 27717,-4322 27792,-4412 27867,-4503 27942,-4595 28016,-4687 28091,-4781 28164,-4875 28238,-4970 28310,-5065 28383,-5161 28455,-5258 28527,-5356 28599,-5455 28670,-5554 28740,-5654 28811,-5755 28880,-5856 28950,-5958 29019,-6061 29088,-6165 29156,-6269 29224,-6374 29291,-6480" style="fill:none; stroke-width:250; stroke:black"/>
</g>
<path d="M29979,-1099 A30000,30000 0 0 1 29979,1099" style="fill:none; stroke-width:250; stroke:black"/>
<path d="M14516,3774 A14999,14999 0 0 1 12001,8996" style="fill:none; stroke-width:250; stroke:black"/>
</g>
<line x1="9352" y1="-11727" x2="18704" y2="-23454" style="fill:none; stroke-width:100; stroke:black; stroke-dasharray:3000,1000,1000,1000"/>
<g transform="rotate(308.571429)">
<g transform="rotate(-14.5746)">
<polyline points="14999,0 21147,0 21235,5 21324,15 21412,28 21501,43 21589,61 21678,80 21766,101 21855,124 21943,148 22031,174 22120,201 22208,230 22296,260 22384,291 22472,324 22560,358 22648,393 22736,429 22824,466 22912,504 22999,544 23087,584 23174,626 23262,669 23349,712 23436,757 23523,803 23610,850 23697,897 23784,946 23870,996 23957,1046 24043,1098 24129,1151 24215,1204 24301,1259 24387,1314 24472,1370 24558,1427 24643,1486 24728,1545 24813,1605 24898,1665 24982,1727 25067,1790 25151,1853 25235,1917 25318,1982 25402,2049 25485,2115 25569,2183 25651,2252 25734,2321 25817,2391 25899,2463 25981,2535 26063,2607 26144,2681 26225,2755 26306,2831 26387,2907 26468,2984 26548,3061 26628,3140 26708,3219 26787,3299 26866,3380 26945,3462 27024,3544 27102,3628 27180,3712 27258,3796 27335,3882 27412,3968 27489,4056 27565,4144 27641,4232 27717,4322 27792,4412 27867,4503 27942,4595 28016,4687 28091,4781 28164,4875 28238,4970 28310,5065 28383,5161 28455,5258 28527,5356 28599,5455 28670,5554 28740,5654 28811,5755 28880,5856 28950,5958 29019,6061 29088,6165 29156,6269 29224,6374 29291,6480" style="fill:none; stroke-width:250; stroke:black"/>
</g>
<g transform="rotate(14.5746)">
<polyline points="14999,0 21147,0 21235,-5 21324,-15 21412,-28 21501,-43 21589,-61 21678,-80 21766,-101 21855,-124 21943,-148 22031,-174 22120,-201 22208,-230 22296,-260 22384,-291 22472,-324 22560,-358 22648,-393 22736,-429 22824,-466 22912,-504 22999,-544 23087,-584 23174,-626 23262,-669 23349,-712 23436,-757 23523,-803 23610,-850 23697,-897 23784,-946 23870,-996 23957,-1046 24043,-1098 24129,-1151 24215,-1204 24301,-1259 24387,-1314 24472,-1370 24558,-1427 24643,-1486 24728,-1545 24813,-1605 24898,-1665 24982,-1727 25067,-1790 25151,-1853 25235,-1917 25318,-1982 25402,-2049 25485,-2115 25569,-2183 25651,-2252 25734,-2321 25817,-2391 25899,-2463 25981,-2535 26063,-2607 26144,-2681 26225,-2755 26306,-2831 26387,-2907 26468,-2984 26548,-3061 26628,-3140 26708,-3219 26787,-3299 26866,-3380 26945,-3462 27024,-3544 27102,-3628 27180,-3712 27258,-3796 27335,-3882 27412,-3968 27489,-4056 27565,-4144 27641,-4232 27717,-4322 27792,-4412 27867,-4503 27942,-4595 28016,-4687 28091,-4781 28164,-4875 28238,-4970 28310,-5065 28383,-5161 28455,-5258 28527,-5356 28599,-5455 28670,-5554 28740,-5654 28811,-5755 28880,-5856 28950,-5958 29019,-6061 29088,-6165 29156,-6269 29224,-6374 29291,-6480" style="fill:none; stroke-width:250; stroke:black"/>
</g>
<path d="M29979,-1099 A30000,30000 0 0 1 29979,1099" style="fill:none; stroke-width:250; stroke:black"/>
<path d="M14516,3774 A14999,14999 0 0 1 12001,8996" style="fill:none; stroke-width:250; stroke:black"/>
</g>
</g>
</g>
<g transform="translate(134999, 88000)">
<circle cx="0" cy="0" r="76666" style="fill:none; stroke-width:100; stroke:black; stroke-dasharray:3000,1000,1000,1000"/>
<line x1="-20833" y1="0" x2="20833" y2="0" style="fill:none; stroke-width:250; stroke:black"/>
<line x1="0" y1="-20833" x2="0" y2="20833" style="fill:none; stroke-width:250; stroke:black"/>
<g transform="rotate(0.000)">
<line x1="68333" y1="0" x2="83333" y2="0" style="fill:none; stroke-width:100; stroke:black; stroke-dasharray:3000,1000,1000,1000"/>
<g transform="rotate(0.000000)">
<g transform="rotate(-5.6305)">
<polyline points="68333,0 69483,0 69622,5 69760,16 69899,30 70037,46 70176,65 70314,86 70452,108 70591,133 70729,158 70868,186 71006,215 71145,245 71283,277 71421,310 71560,344 71698,379 71836,416 71975,453 72113,492 72251,532 72389,573 72527,615 72666,659 72804,703 72942,748 73080,794 73218,841 73356,889 73494,938 73631,988 73769,1039 73907,1091 74045,1144 74182,1198 74320,1252 74458,1307 74595,1364 74732,1421 74870,1479 75007,1538 75145,1597 75282,1658 75419,1719 75556,1781 75693,1844 75830,1908 75967,1972 76104,2038 76240,2104 76377,2171 76514,2238 76650,2307 76787,2376 76923,2446 77059,2516 77196,2588 77332,2660 77468,2733 77604,2807 77740,2881 77875,2956 78011,3032 78147,3109 78282,3186 78417,3264 78553,3343 78688,3423 78823,3503 78958,3584 79093,3666 79228,3748 79362,3831 79497,3915 79632,3999 79766,4084 79900,4170 80034,4257 80168,4344 80302,4432 80436,4520 80570,4610 80703,4700 80837,4790 80970,4881 81103,4973 81236,5066 81369,5159 81502,5253 81634,5348 81767,5443 81899,5539 82031,5636 82164,5733 82296,5831 82427,5929 82559,6029 82691,6128 82822,6229 82953,6330" style="fill:none; stroke-width:250; stroke:black"/>
</g>
<g transform="rotate(5.6305)">
<polyline points="68333,0 69483,0 69622,-5 69760,-16 69899,-30 70037,-46 70176,-65 70314,-86 70452,-108 70591,-133 70729,-158 70868,-186 71006,-215 71145,-245 71283,-277 71421,-310 71560,-344 71698,-379 71836,-416 71975,-453 72113,-492 72251,-532 72389,-573 72527,-615 72666,-659 72804,-703 72942,-748 73080,-794 73218,-841 73356,-889 73494,-938 73631,-988 73769,-1039 73907,-1091 74045,-1144 74182,-1198 74320,-1252 74458,-1307 74595,-1364 74732,-1421 74870,-1479 75007,-1538 75145,-1597 75282,-1658 75419,-1719 75556,-1781 75693,-1844 75830,-1908 75967,-1972 76104,-2038 76240,-2104 76377,-2171 76514,-2238 76650,-2307 76787,-2376 76923,-2446 77059,-2516 77196,-2588 77332,-2660 77468,-2733 77604,-2807 77740,-2881 77875,-2956 78011,-3032 78147,-3109 78282,-3186 78417,-3264 78553,-3343 78688,-3423 78823,-3503 78958,-3584 79093,-3666 79228,-3748 79362,-3831 79497,-3915 79632,-3999 79766,-4084 79900,-4170 80034,-4257 80168,-4344 80302,-4432 80436,-4520 80570,-4610 80703,-4700 80837,-4790 80970,-4881 81103,-4973 81236,-5066 81369,-5159 81502,-5253 81634,-5348 81767,-5443 81899,-5539 82031,-5636 82164,-5733 82296,-5831 82427,-5929 82559,-6029 82691,-6128 82822,-6229 82953,-6330" style="fill:none; stroke-width:250; stroke:black"/>
</g>
<path d="M83173,-1839 A83333,83333 0 0 1 83173,1839" style="fill:none; stroke-width:250; stroke:black"/>
<path d="M68003,6704 A68333,68333 0 0 1 67290,11891" style="fill:none; stroke-width:250; stroke:black"/>
</g>
<line x1="65799" y1="18436" x2="80243" y2="22483" style="fill:none; stroke-width:100; stroke:black; stroke-dasharray:3000,1000,1000,1000"/>
<g transform="rotate(15.652174)">
<g transform="rotate(-5.6305)">
<polyline points="68333,0 69483,0 69622,5 69760,16 69899,30 70037,46 70176,65 70314,86 70452,108 70591,133 70729,158 70868,186 71006,215 71145,245 71283,277 71421,310 71560,344 71698,379 71836,416 71975,453 72113,492 72251,532 72389,573 72527,615 72666,659 72804,703 72942,748 73080,794 73218,841 73356,889 73494,938 73631,988 73769,1039 73907,1091 74045,1144 74182,1198 74320,1252 74458,1307 74595,1364 74732,1421 74870,1479 75007,1538 75145,1597 75282,1658 75419,1719 75556,1781 75693,1844 75830,1908 75967,1972 76104,2038 76240,2104 76377,2171 76514,2238 76650,2307 76787,2376 76923,2446 77059,2516 77196,2588 77332,2660 77468,2733 77604,2807 77740,2881 77875,2956 78011,3032 78147,3109 78282,3186 78417,3264 78553,3343 78688,3423 78823,3503 78958,3584 79093,3666 79228,3748 79362,3831 79497,3915 79632,3999 79766,4084 79900,4170 80034,4257 80168,4344 80302,4432 80436,4520 80570,4610 80703,4700 80837,4790 80970,4881 81103,4973 81236,5066 81369,5159 81502,5253 81634,5348 81767,5443 81899,5539 82031,5636 82164,5733 82296,5831 82427,5929 82559,6029 82691,6128 82822,6229 82953,6330" style="fill:none; stroke-width:250; stroke:black"/>
</g>
<g transform="rotate(5.6305)">
<polyline points="68333,0 69483,0 69622,-5 69760,-16 69899,-30 70037,-46 70176,-65 70314,-86 70452,-108 70591,-133 70729,-158 70868,-186 71006,-215 71145,-245 71283,-277 71421,-310 71560,-344 71698,-379 71836,-416 71975,-453 72113,-492 72251,-532 72389,-573 72527,-615 72666,-659 72804,-703 72942,-748 73080,-794 73218,-841 73356,-889 73494,-938 73631,-988 73769,-1039 73907,-1091 74045,-1144 74182,-1198 74320,-1252 74458,-1307 74595,-1364 74732,-1421 74870,-1479 75007,-1538 75145,-1597 75282,-1658 75419,-1719 75556,-1781 75693,-1844 75830,-1908 75967,-1972 76104,-2038 76240,-2104 76377,-2171 76514,-2238 76650,-2307 76787,-2376 76923,-2446 77059,-2516 77196,-2588 77332,-2660 77468,-2733 77604,-2807 77740,-2881 77875,-2956 78011,-3032 78147,-3109 78282,-3186 78417,-3264 78553,-3343 78688,-3423 78823,-3503 78958,-3584 79093,-3666 79228,-3748 79362,-3831 79497,-3915 79632,-3999 79766,-4084 79900,-4170 80034,-4257 80168,-4344 80302,-4432 80436,-4520 80570,-4610 80703,-4700 80837,-4790 80970,-4881 81103,-4973 81236,-5066 81369,-5159 81502,-5253 81634,-5348 81767,-5443 81899,-5539 82031,-5636 82164,-5733 82296,-5831 82427,-5929 82559,-6029 82691,-6128 82822,-6229 82953,-6330" style="fill:none; stroke-width:250; stroke:black"/>
</g>
<path d="M83173,-1839 A83333,83333 0 0 1 83173,1839" style="fill:none; stroke-width:250; stroke:black"/>
<path d="M68003,6704 A68333,68333 0 0 1 67290,11891" style="fill:none; stroke-width:250; stroke:black"/>
</g>
<line x1="58385" y1="35504" x2="71201" y2="43298" style="fill:none; stroke-width:100; stroke:black; stroke-dasharray:3000,1000,1000,1000"/>
<g transform="rotate(31.304348)">
<g transform="rotate(-5.6305)">
<polyline points="68333,0 69483,0 69622,5 69760,16 69899,30 70037,46 70176,65 70314,86 70452,108 70591,133 70729,158 70868,186 71006,215 71145,245 71283,277 71421,310 71560,344 71698,379 71836,416 71975,453 72113,492 72251,532 72389,573 72527,615 72666,659 72804,703 72942,748 73080,794 73218,841 73356,889 73494,938 73631,988 73769,1039 73907,1091 74045,1144 74182,1198 74320,1252 74458,1307 74595,1364 74732,1421 74870,1479 75007,1538 75145,1597 75282,1658 75419,1719 75556,1781 75693,1844 75830,1908 75967,1972 76104,2038 76240,2104 76377,2171 76514,2238 76650,2307 76787,2376 76923,2446 77059,2516 77196,2588 77332,2660 77468,2733 77604,2807 77740,2881 77875,2956 78011,3032 78147,3109 78282,3186 78417,3264 78553,3343 78688,3423 78823,3503 78958,3584 79093,3666 79228,3748 79362,3831 79497,3915 79632,3999 79766,4084 79900,4170 80034,4257 80168,4344 80302,4432 80436,4520 80570,4610 80703,4700 80837,4790 80970,4881 81103,4973 81236,5066 81369,5159 81502,5253 81634,5348 81767,5443 81899,5539 82031,5636 82164,5733 82296,5831 82427,5929 82559,6029 82691,6128 82822,6229 82953,6330" style="fill:none; stroke-width:250; stroke:black"/>
</g>
<g transform="rotate(5.6305)">
<polyline points="68333,0 69483,0 69622,-5 69760,-16 69899,-30 70037,-46 70176,-65 70314,-86 70452,-108 70591,-133 70729,-158 70868,-186 71006,-215 71145,-245 71283,-277 71421,-310 71560,-344 71698,-379 71836,-416 71975,-453 72113,-492 72251,-532 72389,-573 72527,-615 72666,-659 72804,-703 72942,-748 73080,-794 73218,-841 73356,-889 73494,-938 73631,-988 73769,-1039 73907,-1091 74045,-1144 74182,-1198 74320,-1252 74458,-1307 74595,-1364 74732,-1421 74870,-1479 75007,-1538 75145,-1597 75282,-1658 75419,-1719 75556,-1781 75693,-1844 75830,-1908 75967,-1972 76104,-2038 76240,-2104 76377,-2171 76514,-2238 76650,-2307 76787,-2376 76923,-2446 77059,-2516 77196,-2588 77332,-2660 77468,-2733 77604,-2807 77740,-2881 77875,-2956 78011,-3032 78147,-3109 78282,-3186 78417,-3264 78553,-3343 78688,-3423 78823,-3503 78958,-3584 79093,-3666 79228,-3748 79362,-3831 79497,-3915 79632,-3999 79766,-4084 79900,-4170 80034,-4257 80168,-4344 80302,-4432 80436,-4520 80570,-4610 80703,-4700 80837,-4790 80970,-4881 81103,-4973 81236,-5066 81369,-5159 81502,-5253 81634,-5348 81767,-5443 81899,-5539 82031,-5636 82164,-5733 82296,-5831 82427,-5929 82559,-6029 82691,-6128 82822,-6229 82953,-6330" style="fill:none; stroke-width:250; stroke:black"/>
</g>
<path d="M83173,-1839 A83333,83333 0 0 1 83173,1839" style="fill:none; stroke-width:250; stroke:black"/>
<path d="M68003,6704 A68333,68333 0 0 1 67290,11891" style="fill:none; stroke-width:250; stroke:black"/>
</g>
<line x1="46641" y1="49940" x2="56879" y2="60902" style="fill:none; stroke-width:100; stroke:black; stroke-dasharray:3000,1000,1000,1000"/>
<g transform="rotate(46.956522)">
<g transform="rotate(-5.6305)">
<polyline points="68333,0 69483,0 69622,5 69760,16 69899,30 70037,46 70176,65 70314,86 70452,108 70591,133 70729,158 70868,186 71006,215 71145,245 71283,277 71421,310 71560,344 71698,379 71836,416 71975,453 72113,492 72251,532 72389,573 72527,615 72666,659 72804,703 72942,748 73080,794 73218,841 73356,889 73494,938 73631,988 73769,1039 73907,1091 74045,1144 74182,1198 74320,1252 74458,1307 74595,1364 74732,1421 74870,1479 75007,1538 75145,1597 75282,1658 75419,1719 75556,1781 75693,1844 75830,1908 75967,1972 76104,2038 76240,2104 76377,2171 76514,2238 76650,2307 76787,2376 76923,2446 77059,2516 77196,2588 77332,2660 77468,2733 77604,2807 77740,2881 77875,2956 78011,3032 78147,3109 78282,3186 78417,3264 78553,3343 78688,3423 78823,3503 78958,3584 79093,3666 79228,3748 79362,3831 79497,3915 79632,3999 79766,4084 79900,4170 80034,4257 80168,4344 80302,4432 80436,4520 80570,4610 80703,4700 80837,4790 80970,4881 81103,4973 81236,5066 81369,5159 81502,5253 81634,5348 81767,5443 81899,5539 82031,5636 82164,5733 82296,5831 82427,5929 82559,6029 82691,6128 82822,6229 82953,6330" style="fill:none; stroke-width:250; stroke:black"/>
</g>
<g transform="rotate(5.6305)">
<polyline points="68333,0 69483,0 69622,-5 69760,-16 69899,-30 70037,-46 70176,-65 70314,-86 70452,-108 70591,-133 70729,-158 70868,-186 71006,-215 71145,-245 71283,-277 71421,-310 71560,-344 71698,-379 71836,-416 71975,-453 72113,-492 72251,-532 72389,-573 72527,-615 72666,-659 72804,-703 72942,-748 73080,-794 73218,-841 73356,-889 73494,-938 73631,-988 73769,-1039 73907,-1091 74045,-1144 74182,-1198 74320,-1252 74458,-1307 74595,-1364 74732,-1421 74870,-1479 75007,-1538 75145,-1597 75282,-1658 75419,-1719 75556,-1781 75693,-1844 75830,-1908 75967,-1972 76104,-2038 76240,-2104 76377,-2171 76514,-2238 76650,-2307 76787,-2376 76923,-2446 77059,-2516 77196,-2588 77332,-2660 77468,-2733 77604,-2807 77740,-2881 77875,-2956 78011,-3032 78147,-3109 78282,-3186 78417,-3264 78553,-3343 78688,-3423 78823,-3503 78958,-3584 79093,-3666 79228,-3748 79362,-3831 79497,-3915 79632,-3999 79766,-4084 79900,-4170 80034,-4257 80168,-4344 80302,-4432 80436,-4520 80570,-4610 80703,-4700 80837,-4790 80970,-4881 81103,-4973 81236,-5066 81369,-5159 81502,-5253 81634,-5348 81767,-5443 81899,-5539 82031,-5636 82164,-5733 82296,-5831 82427,-5929 82559,-6029 82691,-6128 82822,-6229 82953,-6330" style="fill:none; stroke-width:250; stroke:black"/>
</g>
<path d="M83173,-1839 A83333,83333 0 0 1 83173,1839" style="fill:none; stroke-width:250; stroke:black"/>
<path d="M68003,6704 A68333,68333 0 0 1 67290,11891" style="fill:none; stroke-width:250; stroke:black"/>
</g>
<line x1="31437" y1="60672" x2="38338" y2="73990" style="fill:none; stroke-width:100; stroke:black; stroke-dasharray:3000,1000,1000,1000"/>
<g transform="rotate(62.608696)">
<g transform="rotate(-5.6305)">
<polyline points="68333,0 69483,0 69622,5 69760,16 69899,30 70037,46 70176,65 70314,86 70452,108 70591,133 70729,158 70868,186 71006,215 71145,245 71283,277 71421,310 71560,344 71698,379 71836,416 71975,453 72113,492 72251,532 72389,573 72527,615 72666,659 72804,703 72942,748 73080,794 73218,841 73356,889 73494,938 73631,988 73769,1039 73907,1091 74045,1144 74182,1198 74320,1252 74458,1307 74595,1364 74732,1421 74870,1479 75007,1538 75145,1597 75282,1658 75419,1719 75556,1781 75693,1844 75830,1908 75967,1972 76104,2038 76240,2104 76377,2171 76514,2238 76650,2307 76787,2376 76923,2446 77059,2516 77196,2588 77332,2660 77468,2733 77604,2807 77740,2881 77875,2956 78011,3032 78147,3109 78282,3186 78417,3264 78553,3343 78688,3423 78823,3503 78958,3584 79093,3666 79228,3748 79362,3831 79497,3915 79632,3999 79766,4084 79900,4170 80034,4257 80168,4344 80302,4432 80436,4520 80570,4610 80703,4700 80837,4790 80970,4881 81103,4973 81236,5066 81369,5159 81502,5253 81634,5348 81767,5443 81899,5539 82031,5636 82164,5733 82296,5831 82427,5929 82559,6029 82691,6128 82822,6229 82953,6330" style="fill:none; stroke-width:250; stroke:black"/>
</g>
<g transform="rotate(5.6305)">
<polyline points="68333,0 69483,0 69622,-5 69760,-16 69899,-30 70037,-46 70176,-65 70314,-86 70452,-108 70591,-133 70729,-158 70868,-186 71006,-215 71145,-245 71283,-277 71421,-310 71560,-344 71698,-379 71836,-416 71975,-453 72113,-492 72251,-532 72389,-573 72527,-615 72666,-659 72804,-703 72942,-748 73080,-794 73218,-841 73356,-889 73494,-938 73631,-988 73769,-1039 73907,-1091 74045,-1144 74182,-1198 74320,-1252 74458,-1307 74595,-1364 74732,-1421 74870,-1479 75007,-1538 75145,-1597 75282,-1658 75419,-1719 75556,-1781 75693,-1844 75830,-1908 75967,-1972 76104,-2038 76240,-2104 76377,-2171 76514,-2238 76650,-2307 76787,-2376 76923,-2446 77059,-2516 77196,-2588 77332,-2660 77468,-2733 77604,-2807 77740,-2881 77875,-2956 78011,-3032 78147,-3109 78282,-3186 78417,-3264 78553,-3343 78688,-3423 78823,-3503 78958,-3584 79093,-3666 79228,-3748 79362,-3831 79497,-3915 79632,-3999 79766,-4084 79900,-4170 80034,-4257 80168,-4344 80302,-4432 80436,-4520 80570,-4610 80703,-4700 80837,-4790 80970,-4881 81103,-4973 81236,-5066 81369,-5159 81502,-5253 81634,-5348 81767,-5443 81899,-5539 82031,-5636 82164,-5733 82296,-5831 82427,-5929 82559,-6029 82691,-6128 82822,-6229 82953,-6330" style="fill:none; stroke-width:250; stroke:black"/>
</g>
<path d="M83173,-1839 A83333,83333 0 0 1 83173,1839" style="fill:none; stroke-width:250; stroke:black"/>
<path d="M68003,6704 A68333,68333 0 0 1 67290,11891" style="fill:none; stroke-width:250; stroke:black"/>
</g>
<line x1="13902" y1="66904" x2="16954" y2="81590" style="fill:none; stroke-width:100; stroke:black; stroke-dasharray:3000,1000,1000,1000"/>
<g transform="rotate(78.260870)">
<g transform="rotate(-5.6305)">
<polyline points="68333,0 69483,0 69622,5 69760,16 69899,30 70037,46 70176,65 70314,86 70452,108 70591,133 70729,158 70868,186 71006,215 71145,245 71283,277 71421,310 71560,344 71698,379 71836,416 71975,453 72113,492 72251,532 72389,573 72527,615 72666,659 72804,703 72942,748 73080,794 73218,841 73356,889 73494,938 73631,988 73769,1039 73907,1091 74045,1144 74182,1198 74320,1252 74458,1307 74595,1364 74732,1421 74870,1479 75007,1538 75145,1597 75282,1658 75419,1719 75556,1781 75693,1844 75830,1908 75967,1972 76104,2038 76240,2104 76377,2171 76514,2238 76650,2307 76787,2376 76923,2446 77059,2516 77196,2588 77332,2660 77468,2733 77604,2807 77740,2881 77875,2956 78011,3032 78147,3109 78282,3186 78417,3264 78553,3343 78688,3423 78823,3503 78958,3584 79093,3666 79228,3748 79362,3831 79497,3915 79632,3999 79766,4084 79900,4170 80034,4257 80168,4344 80302,4432 80436,4520 80570,4610 80703,4700 80837,4790 80970,4881 81103,4973 81236,5066 81369,5159 81502,5253 81634,5348 81767,5443 81899,5539 82031,5636 82164,5733 82296,5831 82427,5929 82559,6029 82691,6128 82822,6229 82953,6330" style="fill:none; stroke-width:250; stroke:black"/>
</g>
<g transform="rotate(5.6305)">
<polyline points="68333,0 69483,0 69622,-5 69760,-16 69899,-30 70037,-46 70176,-65 70314,-86 70452,-108 70591,-133 70729,-158 70868,-186 71006,-215 71145,-245 71283,-277 71421,-310 71560,-344 71698,-379 71836,-416 71975,-453 72113,-492 72251,-532 72389,-573 72527,-615 72666,-659 72804,-703 72942,-748 73080,-794 73218,-841 73356,-889 73494,-938 73631,-988 73769,-1039 73907,-1091 74045,-1144 74182,-1198 74320,-1252 74458,-1307 74595,-1364 74732,-1421 74870,-1479 75007,-1538 75145,-1597 75282,-1658 75419,-1719 75556,-1781 75693,-1844 75830,-1908 75967,-1972 76104,-2038 76240,-2104 76377,-2171 76514,-2238 76650,-2307 76787,-2376 76923,-2446 77059,-2516 77196,-2588 77332,-2660 77468,-2733 77604,-2807 77740,-2881 77875,-2956 78011,-3032 78147,-3109 78282,-3186 78417,-3264 78553,-3343 78688,-3423 78823,-3503 78958,-3584 79093,-3666 79228,-3748 79362,-3831 79497,-3915 79632,-3999 79766,-4084 79900,-4170 80034,-4257 80168,-4344 80302,-4432 80436,-4520 80570,-4610 80703,-4700 80837,-4790 80970,-4881 81103,-4973 81236,-5066 81369,-5159 81502,-5253 81634,-5348 81767,-5443 81899,-5539 82031,-5636 82164,-5733 82296,-5831 82427,-5929 82559,-6029 82691,-6128 82822,-6229 82953,-6330" style="fill:none; stroke-width:250; stroke:black"/>
</g>
<path d="M83173,-1839 A83333,83333 0 0 1 83173,1839" style="fill:none; stroke-width:250; stroke:black"/>
<path d="M68003,6704 A68333,68333 0 0 1 67290,11891" style="fill:none; stroke-width:250; stroke:black"/>
</g>
<line x1="-4663" y1="68174" x2="-5686" y2="83139" style="fill:none; stroke-width:100; stroke:black; stroke-dasharray:3000,1000,1000,1000"/>
<g transform="rotate(93.913043)">
<g transform="rotate(-5.6305)">
<polyline points="68333,0 69483,0 69622,5 69760,16 69899,30 70037,46 70176,65 70314,86 70452,108 70591,133 70729,158 70868,186 71006,215 71145,245 71283,277 71421,310 71560,344 71698,379 71836,416 71975,453 72113,492 72251,532 72389,573 72527,615 72666,659 72804,703 72942,748 73080,794 73218,841 73356,889 73494,938 73631,988 73769,1039 73907,1091 74045,1144 74182,1198 74320,1252 74458,1307 74595,1364 74732,1421 74870,1479 75007,1538 75145,1597 75282,1658 75419,1719 75556,1781 75693,1844 75830,1908 75967,1972 76104,2038 76240,2104 76377,2171 76514,2238 76650,2307 76787,2376 76923,2446 77059,2516 77196,2588 77332,2660 77468,2733 77604,2807 77740,2881 77875,2956 78011,3032 78147,3109 78282,3186 78417,3264 78553,3343 78688,3423 78823,3503 78958,3584 79093,3666 79228,3748 79362,3831 79497,3915 79632,3999 79766,4084 79900,4170 80034,4257 80168,4344 80302,4432 80436,4520 80570,4610 80703,4700 80837,4790 80970,4881 81103,4973 81236,5066 81369,5159 81502,5253 81634,5348 81767,5443 81899,5539 82031,5636 82164,5733 82296,5831 82427,5929 82559,6029 82691,6128 82822,6229 82953,6330" style="fill:none; stroke-width:250; stroke:black"/>
</g>
<g transform="rotate(5.6305)">
<polyline points="68333,0 69483,0 69622,-5 69760,-16 69899,-30 70037,-46 70176,-65 70314,-86 70452,-108 70591,-133 70729,-158 70868,-186 71006,-215 71145,-245 71283,-277 71421,-310 71560,-344 71698,-379 71836,-416 71975,-453 72113,-492 72251,-532 72389,-573 72527,-615 72666,-659 72804,-703 72942,-748 73080,-794 73218,-841 73356,-889 73494,-938 73631,-988 73769,-1039 73907,-1091 74045,-1144 74182,-1198 74320,-1252 74458,-1307 74595,-1364 74732,-1421 74870,-1479 75007,-1538 75145,-1597 75282,-1658 75419,-1719 75556,-1781 75693,-1844 75830,-1908 75967,-1972 76104,-2038 76240,-2104 76377,-2171 76514,-2238 76650,-2307 76787,-2376 76923,-2446 77059,-2516 77196,-2588 77332,-2660 77468,-2733 77604,-2807 77740,-2881 77875,-2956 78011,-3032 78147,-3109 78282,-3186 78417,-3264 78553,-3343 78688,-3423 78823,-3503 78958,-3584 79093,-3666 79228,-3748 79362,-3831 79497,-3915 79632,-3999 79766,-4084 79900,-4170 80034,-4257 80168,-4344 80302,-4432 80436,-4520 80570,-4610 80703,-4700 80837,-4790 80970,-4881 81103,-4973 81236,-5066 81369,-5159 81502,-5253 81634,-5348 81767,-5443 81899,-5539 82031,-5636 82164,-5733 82296,-5831 82427,-5929 82559,-6029 82691,-6128 82822,-6229 82953,-6330" style="fill:none; stroke-width:250; stroke:black"/>
</g>
<path d="M83173,-1839 A83333,83333 0 0 1 83173,1839" style="fill:none; stroke-width:250; stroke:black"/>
<path d="M68003,6704 A68333,68333 0 0 1 67290,11891" style="fill:none; stroke-width:250; stroke:black"/>
</g>
<line x1="-22883" y1="64387" x2="-27906" y2="78521" style="fill:none; stroke-width:100; stroke:black; stroke-dasharray:3000,1000,1000,1000"/>
<g transform="rotate(109.565217)">
<g transform="rotate(-5.6305)">
<polyline points="68333,0 69483,0 69622,5 69760,16 69899,30 70037,46 70176,65 70314,86 70452,108 70591,133 70729,158 70868,186 71006,215 71145,245 71283,277 71421,310 71560,344 71698,379 71836,416 71975,453 72113,492 72251,532 72389,573 72527,615 72666,659 72804,703 72942,748 73080,794 73218,841 73356,889 73494,938 73631,988 73769,1039 73907,1091 74045,1144 74182,1198 74320,1252 74458,1307 74595,1364 74732,1421 74870,1479 75007,1538 75145,1597 75282,1658 75419,1719 75556,1781 75693,1844 75830,1908 75967,1972 76104,2038 76240,2104 76377,2171 76514,2238 76650,2307 76787,2376 76923,2446 77059,2516 77196,2588 77332,2660 77468,2733 77604,2807 77740,2881 77875,2956 78011,3032 78147,3109 78282,3186 78417,3264 78553,3343 78688,3423 78823,3503 78958,3584 79093,3666 79228,3748 79362,3831 79497,3915 79632,3999 79766,4084 79900,4170 80034,4257 80168,4344 80302,4432 80436,4520 80570,4610 80703,4700 80837,4790 80970,4881 81103,4973 81236,5066 81369,5159 81502,5253 81634,5348 81767,5443 81899,5539 82031,5636 82164,5733 82296,5831 82427,5929 82559,6029 82691,6128 82822,6229 82953,6330" style="fill:none; stroke-width:250; stroke:black"/>
</g>
<g transform="rotate(5.6305)">
<polyline points="68333,0 69483,0 69622,-5 69760,-16 69899,-30 70037,-46 70176,-65 70314,-86 70452,-108 70591,-133 70729,-158 70868,-186 71006,-215 71145,-245 71283,-277 71421,-310 71560,-344 71698,-379 71836,-416 71975,-453 72113,-492 72251,-532 72389,-573 72527,-615 72666,-659 72804,-703 72942,-748 73080,-794 73218,-841 73356,-889 73494,-938 73631,-988 73769,-1039 73907,-1091 74045,-1144 74182,-1198 74320,-1252 74458,-1307 74595,-1364 74732,-1421 74870,-1479 75007,-1538 75145,-1597 75282,-1658 75419,-1719 75556,-1781 75693,-1844 75830,-1908 75967,-1972 76104,-2038 76240,-2104 76377,-2171 76514,-2238 76650,-2307 76787,-2376 76923,-2446 77059,-2516 77196,-2588 77332,-2660 77468,-2733 77604,-2807 77740,-2881 77875,-2956 78011,-3032 78147,-3109 78282,-3186 78417,-3264 78553,-3343 78688,-3423 78823,-3503 78958,-3584 79093,-3666 79228,-3748 79362,-3831 79497,-3915 79632,-3999 79766,-4084 79900,-4170 80034,-4257 80168,-4344 80302,-4432 80436,-4520 80570,-4610 80703,-4700 80837,-4790 80970,-4881 81103,-4973 81236,-5066 81369,-5159 81502,-5253 81634,-5348 81767,-5443 81899,-5539 82031,-5636 82164,-5733 82296,-5831 82427,-5929 82559,-6029 82691,-6128 82822,-6229 82953,-6330" style="fill:none; stroke-width:250; stroke:black"/>
</g>
<path d="M83173,-1839 A83333,83333 0 0 1 83173,1839" style="fill:none; stroke-width:250; stroke:black"/>
<path d="M68003,6704 A68333,68333 0 0 1 67290,11891" style="fill:none; stroke-width:250; stroke:black"/>
</g>
<line x1="-39406" y1="55826" x2="-48056" y2="68080" style="fill:none; stroke-width:100; stroke:black; stroke-dasharray:3000,1000,1000,1000"/>
<g transform="rotate(125.217391)">
<g transform="rotate(-5.6305)">
<polyline points="68333,0 69483,0 69622,5 69760,16 69899,30 70037,46 70176,65 70314,86 70452,108 70591,133 70729,158 70868,186 71006,215 71145,245 71283,277 71421,310 71560,344 71698,379 71836,416 71975,453 72113,492 72251,532 72389,573 72527,615 72666,659 72804,703 72942,748 73080,794 73218,841 73356,889 73494,938 73631,988 73769,1039 73907,1091 74045,1144 74182,1198 74320,1252 74458,1307 74595,1364 74732,1421 74870,1479 75007,1538 75145,1597 75282,1658 75419,1719 75556,1781 75693,1844 75830,1908 75967,1972 76104,2038 76240,2104 76377,2171 76514,2238 76650,2307 76787,2376 76923,2446 77059,2516 77196,2588 77332,2660 77468,2733 77604,2807 77740,2881 77875,2956 78011,3032 78147,3109 78282,3186 78417,3264 78553,3343 78688,3423 78823,3503 78958,3584 79093,3666 79228,3748 79362,3831 79497,3915 79632,3999 79766,4084 79900,4170 80034,4257 80168,4344 80302,4432 80436,4520 80570,4610 80703,4700 80837,4790 80970,4881 81103,4973 81236,5066 81369,5159 81502,5253 81634,5348 81767,5443 81899,5539 82031,5636 82164,5733 82296,5831 82427,5929 82559,6029 82691,6128 82822,6229 82953,6330" style="fill:none; stroke-width:250; stroke:black"/>
</g>
<g transform="rotate(5.6305)">
<polyline points="68333,0 69483,0 69622,-5 69760,-16 69899,-30 70037,-46 70176,-65 70314,-86 70452,-108 70591,-133 70729,-158 70868,-186 71006,-215 71145,-245 71283,-277 71421,-310 71560,-344 71698,-379 71836,-416 71975,-453 72113,-492 72251,-532 72389,-573 72527,-615 72666,-659 72804,-703 72942,-748 73080,-794 73218,-841 73356,-889 73494,-938 73631,-988 73769,-1039 73907,-1091 74045,-1144 74182,-1198 74320,-1252 74458,-1307 74595,-1364 74732,-1421 74870,-1479 75007,-1538 75145,-1597 75282,-1658 75419,-1719 75556,-1781 75693,-1844 75830,-1908 75967,-1972 76104,-2038 76240,-2104 76377,-2171 76514,-2238 76650,-2307 76787,-2376 76923,-2446 77059,-2516 77196,-2588 77332,-2660 77468,-2733 77604,-2807 77740,-2881 77875,-2956 78011,-3032 78147,-3109 78282,-3186 78417,-3264 78553,-3343 78688,-3423 78823,-3503 78958,-3584 79093,-3666 79228,-3748 79362,-3831 79497,-3915 79632,-3999 79766,-4084 79900,-4170 80034,-4257 80168,-4344 80302,-4432 80436,-4520 80570,-4610 80703,-4700 80837,-4790 80970,-4881 81103,-4973 81236,-5066 81369,-5159 81502,-5253 81634,-5348 81767,-5443 81899,-5539 82031,-5636 82164,-5733 82296,-5831 82427,-5929 82559,-6029 82691,-6128 82822,-6229 82953,-6330" style="fill:none; stroke-width:250; stroke:black"/>
</g>
<path d="M83173,-1839 A83333,83333 0 0 1 83173,1839" style="fill:none; stroke-width:250; stroke:black"/>
<path d="M68003,6704 A68333,68333 0 0 1 67290,11891" style="fill:none; stroke-width:250; stroke:black"/>
</g>
<line x1="-53006" y1="43124" x2="-64642" y2="52590" style="fill:none; stroke-width:100; stroke:black; stroke-dasharray:3000,1000,1000,1000"/>
<g transform="rotate(140.869565)">
<g transform="rotate(-5.6305)">
<polyline points="68333,0 69483,0 69622,5 69760,16 69899,30 70037,46 70176,65 70314,86 70452,108 70591,133 70729,158 70868,186 71006,215 71145,245 71283,277 71421,310 71560,344 71698,379 71836,416 71975,453 72113,492 72251,532 72389,573 72527,615 72666,659 72804,703 72942,748 73080,794 73218,841 73356,889 73494,938 73631,988 73769,1039 73907,1091 74045,1144 74182,1198 74320,1252 74458,1307 74595,1364 74732,1421 74870,1479 75007,1538 75145,1597 75282,1658 75419,1719 75556,1781 75693,1844 75830,1908 75967,1972 76104,2038 76240,2104 76377,2171 76514,2238 76650,2307 76787,2376 76923,2446 77059,2516 77196,2588 77332,2660 77468,2733 77604,2807 77740,2881 77875,2956 78011,3032 78147,3109 78282,3186 78417,3264 78553,3343 78688,3423 78823,3503 78958,3584 79093,3666 79228,3748 79362,3831 79497,3915 79632,3999 79766,4084 79900,4170 80034,4257 80168,4344 80302,4432 80436,4520 80570,4610 80703,4700 80837,4790 80970,4881 81103,4973 81236,5066 81369,5159 81502,5253 81634,5348 81767,5443 81899,5539 82031,5636 82164,5733 82296,5831 82427,5929 82559,6029 82691,6128 82822,6229 82953,6330" style="fill:none; stroke-width:250; stroke:black"/>
</g>
<g transform="rotate(5.6305)">
<polyline points="68333,0 69483,0 69622,-5 69760,-16 69899,-30 70037,-46 70176,-65 70314,-86 70452,-108 70591,-133 70729,-158 70868,-186 71006,-215 71145,-245 71283,-277 71421,-310 71560,-344 71698,-379 71836,-416 71975,-453 72113,-492 72251,-532 72389,-573 72527,-615 72666,-659 72804,-703 72942,-748 73080,-794 73218,-841 73356,-889 73494,-938 73631,-988 73769,-1039 73907,-1091 74045,-1144 74182,-1198 74320,-1252 74458,-1307 74595,-1364 74732,-1421 74870,-1479 75007,-1538 75145,-1597 75282,-1658 75419,-1719 75556,-1781 75693,-1844 75830,-1908 75967,-1972 76104,-2038 76240,-2104 76377,-2171 76514,-2238 76650,-2307 76787,-2376 76923,-2446 77059,-2516 77196,-2588 77332,-2660 77468,-2733 77604,-2807 77740,-2881 77875,-2956 78011,-3032 78147,-3109 78282,-3186 78417,-3264 78553,-3343 78688,-3423 78823,-3503 78958,-3584 79093,-3666 79228,-3748 79362,-3831 79497,-3915 79632,-3999 79766,-4084 79900,-4170 80034,-4257 80168,-4344 80302,-4432 80436,-4520 80570,-4610 80703,-4700 80837,-4790 80970,-4881 81103,-4973 81236,-5066 81369,-5159 81502,-5253 81634,-5348 81767,-5443 81899,-5539 82031,-5636 82164,-5733 82296,-5831 82427,-5929 82559,-6029 82691,-6128 82822,-6229 82953,-6330" style="fill:none; stroke-width:250; stroke:black"/>
</g>
<path d="M83173,-1839 A83333,83333 0 0 1 83173,1839" style="fill:none; stroke-width:250; stroke:black"/>
<path d="M68003,6704 A68333,68333 0 0 1 67290,11891" style="fill:none; stroke-width:250; stroke:black"/>
</g>
<line x1="-62676" y1="27224" x2="-76434" y2="33200" style="fill:none; stroke-width:100; stroke:black; stroke-dasharray:3000,1000,1000,1000"/>
<g transform="rotate(156.521739)">
<g transform="rotate(-5.6305)">
<polyline points="68333,0 69483,0 69622,5 69760,16 69899,30 70037,46 70176,65 70314,86 70452,108 70591,133 70729,158 70868,186 71006,215 71145,245 71283,277 71421,310 71560,344 71698,379 71836,416 71975,453 72113,492 72251,532 72389,573 72527,615 72666,659 72804,703 72942,748 73080,794 73218,841 73356,889 73494,938 73631,988 73769,1039 73907,1091 74045,1144 74182,1198 74320,1252 74458,1307 74595,1364 74732,1421 74870,1479 75007,1538 75145,1597 75282,1658 75419,1719 75556,1781 75693,1844 75830,1908 75967,1972 76104,2038 76240,2104 76377,2171 76514,2238 76650,2307 76787,2376 76923,2446 77059,2516 77196,2588 77332,2660 77468,2733 77604,2807 77740,2881 77875,2956 78011,3032 78147,3109 78282,3186 78417,3264 78553,3343 78688,3423 78823,3503 78958,3584 79093,3666 79228,3748 79362,3831 79497,3915 79632,3999 79766,4084 79900,4170 80034,4257 80168,4344 80302,4432 80436,4520 80570,4610 80703,4700 80837,4790 80970,4881 81103,4973 81236,5066 81369,5159 81502,5253 81634,5348 81767,5443 81899,5539 82031,5636 82164,5733 82296,5831 82427,5929 82559,6029 82691,6128 82822,6229 82953,6330" style="fill:none; stroke-width:250; stroke:black"/>
</g>
<g transform="rotate(5.6305)">
<polyline points="68333,0 69483,0 69622,-5 69760,-16 69899,-30 70037,-46 70176,-65 70314,-86 70452,-108 70591,-133 70729,-158 70868,-186 71006,-215 71145,-245 71283,-277 71421,-310 71560,-344 71698,-379 71836,-416 71975,-453 72113,-492 72251,-532 72389,-573 72527,-615 72666,-659 72804,-703 72942,-748 73080,-794 73218,-841 73356,-889 73494,-938 73631,-988 73769,-1039 73907,-1091 74045,-1144 74182,-1198 74320,-1252 74458,-1307 74595,-1364 74732,-1421 74870,-1479 75007,-1538 75145,-1597 75282,-1658 75419,-1719 75556,-1781 75693,-1844 75830,-1908 75967,-1972 76104,-2038 76240,-2104 76377,-2171 76514,-2238 76650,-2307 76787,-2376 76923,-2446 77059,-2516 77196,-2588 77332,-2660 77468,-2733 77604,-2807 77740,-2881 77875,-2956 78011,-3032 78147,-3109 78282,-3186 78417,-3264 78553,-3343 78688,-3423 78823,-3503 78958,-3584 79093,-3666 79228,-3748 79362,-3831 79497,-3915 79632,-3999 79766,-4084 79900,-4170 80034,-4257 80168,-4344 80302,-4432 80436,-4520 80570,-4610 80703,-4700 80837,-4790 80970,-4881 81103,-4973 81236,-5066 81369,-5159 81502,-5253 81634,-5348 81767,-5443 81899,-5539 82031,-5636 82164,-5733 82296,-5831 82427,-5929 82559,-6029 82691,-6128 82822,-6229 82953,-6330" style="fill:none; stroke-width:250; stroke:black"/>
</g>
<path d="M83173,-1839 A83333,83333 0 0 1 83173,1839" style="fill:none; stroke-width:250; stroke:black"/>
<path d="M68003,6704 A68333,68333 0 0 1 67290,11891" style="fill:none; stroke-width:250; stroke:black"/>
</g>
<line x1="-67696" y1="9304" x2="-82557" y2="11347" style="fill:none; stroke-width:100; stroke:black; stroke-dasharray:3000,1000,1000,1000"/>
<g transform="rotate(172.173913)">
<g transform="rotate(-5.6305)">
<polyline points="68333,0 69483,0 69622,5 69760,16 69899,30 70037,46 70176,65 70314,86 70452,108 70591,133 70729,158 70868,186 71006,215 71145,245 71283,277 71421,310 71560,344 71698,379 71836,416 71975,453 72113,492 72251,532 72389,573 72527,615 72666,659 72804,703 72942,748 73080,794 73218,841 73356,889 73494,938 73631,988 73769,1039 73907,1091 74045,1144 74182,1198 74320,1252 74458,1307 74595,1364 74732,1421 74870,1479 75007,1538 75145,1597 75282,1658 75419,1719 75556,1781 75693,1844 75830,1908 75967,1972 76104,2038 76240,2104 76377,2171 76514,2238 76650,2307 76787,2376 76923,2446 77059,2516 77196,2588 77332,2660 77468,2733 77604,2807 77740,2881 77875,2956 78011,3032 78147,3109 78282,3186 78417,3264 78553,3343 78688,3423 78823,3503 78958,3584 79093,3666 79228,3748 79362,3831 79497,3915 79632,3999 79766,4084 79900,4170 80034,4257 80168,4344 80302,4432 80436,4520 80570,4610 80703,4700 80837,4790 80970,4881 81103,4973 81236,5066 81369,5159 81502,5253 81634,5348 81767,5443 81899,5539 82031,5636 82164,5733 82296,5831 82427,5929 82559,6029 82691,6128 82822,6229 82953,6330" style="fill:none; stroke-width:250; stroke:black"/>
</g>
<g transform="rotate(5.6305)">
<polyline points="68333,0 69483,0 69622,-5 69760,-16 69899,-30 70037,-46 70176,-65 70314,-86 70452,-108 70591,-133 70729,-158 70868,-186 71006,-215 71145,-245 71283,-277 71421,-310 71560,-344 71698,-379 71836,-416 71975,-453 72113,-492 72251,-532 72389,-573 72527,-615 72666,-659 72804,-703 72942,-748 73080,-794 73218,-841 73356,-889 73494,-938 73631,-988 73769,-1039 73907,-1091 74045,-1144 74182,-1198 74320,-1252 74458,-1307 74595,-1364 74732,-1421 74870,-1479 75007,-1538 75145,-1597 75282,-1658 75419,-1719 75556,-1781 75693,-1844 75830,-1908 75967,-1972 76104,-2038 76240,-2104 76377,-2171 76514,-2238 76650,-2307 76787,-2376 76923,-2446 77059,-2516 77196,-2588 77332,-2660 77468,-2733 77604,-2807 77740,-2881 77875,-2956 78011,-3032 78147,-3109 78282,-3186 78417,-3264 78553,-3343 78688,-3423 78823,-3503 78958,-3584 79093,-3666 79228,-3748 79362,-3831 79497,-3915 79632,-3999 79766,-4084 79900,-4170 80034,-4257 80168,-4344 80302,-4432 80436,-4520 80570,-4610 80703,-4700 80837,-4790 80970,-4881 81103,-4973 81236,-5066 81369,-5159 81502,-5253 81634,-5348 81767,-5443 81899,-5539 82031,-5636 82164,-5733 82296,-5831 82427,-5929 82559,-6029 82691,-6128 82822,-6229 82953,-6330" style="fill:none; stroke-width:250; stroke:black"/>
</g>
<path d="M83173,-1839 A83333,83333 0 0 1 83173,1839" style="fill:none; stroke-width:250; stroke:black"/>
<path d="M68003,6704 A68333,68333 0 0 1 67290,11891" style="fill:none; stroke-width:250; stroke:black"/>
</g>
<line x1="-67696" y1="-9304" x2="-82557" y2="-11347" style="fill:none; stroke-width:100; stroke:black; stroke-dasharray:3000,1000,1000,1000"/>
<g transform="rotate(187.826087)">
<g transform="rotate(-5.6305)">
<polyline points="68333,0 69483,0 69622,5 69760,16 69899,30 70037,46 70176,65 70314,86 70452,108 70591,133 70729,158 70868,186 71006,215 71145,245 71283,277 71421,310 71560,344 71698,379 71836,416 71975,453 72113,492 72251,532 72389,573 72527,615 72666,659 72804,703 72942,748 73080,794 73218,841 73356,889 73494,938 73631,988 73769,1039 73907,1091 74045,1144 74182,1198 74320,1252 74458,1307 74595,1364 74732,1421 74870,1479 75007,1538 75145,1597 75282,1658 75419,1719 75556,1781 75693,1844 75830,1908 75967,1972 76104,2038 76240,2104 76377,2171 76514,2238 76650,2307 76787,2376 76923,2446 77059,2516 77196,2588 77332,2660 77468,2733 77604,2807 77740,2881 77875,2956 78011,3032 78147,3109 78282,3186 78417,3264 78553,3343 78688,3423 78823,3503 78958,3584 79093,3666 79228,3748 79362,3831 79497,3915 79632,3999 79766,4084 79900,4170 80034,4257 80168,4344 80302,4432 80436,4520 80570,4610 80703,4700 80837,4790 80970,4881 81103,4973 81236,5066 81369,5159 81502,5253 81634,5348 81767,5443 81899,5539 82031,5636 82164,5733 82296,5831 82427,5929 82559,6029 82691,6128 82822,6229 82953,6330" style="fill:none; stroke-width:250; stroke:black"/>
</g>
<g transform="rotate(5.6305)">
<polyline points="68333,0 69483,0 69622,-5 69760,-16 69899,-30 70037,-46 70176,-65 70314,-86 70452,-108 70591,-133 70729,-158 70868,-186 71006,-215 71145,-245 71283,-277 71421,-310 71560,-344 71698,-379 71836,-416 71975,-453 72113,-492 72251,-532 72389,-573 72527,-615 72666,-659 72804,-703 72942,-748 73080,-794 73218,-841 73356,-889 73494,-938 73631,-988 73769,-1039 73907,-1091 74045,-1144 74182,-1198 74320,-1252 74458,-1307 74595,-1364 74732,-1421 74870,-1479 75007,-1538 75145,-1597 75282,-1658 75419,-1719 75556,-1781 75693,-1844 75830,-1908 75967,-1972 76104,-2038 76240,-2104 76377,-2171 76514,-2238 76650,-2307 76787,-2376 76923,-2446 77059,-2516 77196,-2588 77332,-2660 77468,-2733 77604,-2807 77740,-2881 77875,-2956 78011,-3032 78147,-3109 78282,-3186 78417,-3264 78553,-3343 78688,-3423 78823,-3503 78958,-3584 79093,-3666 79228,-3748 79362,-3831 79497,-3915 79632,-3999 79766,-4084 79900,-4170 80034,-4257 80168,-4344 80302,-4432 80436,-4520 80570,-4610 80703,-4700 80837,-4790 80970,-4881 81103,-4973 81236,-5066 81369,-5159 81502,-5253 81634,-5348 81767,-5443 81899,-5539 82031,-5636 82164,-5733 82296,-5831 82427,-5929 82559,-6029 82691,-6128 82822,-6229 82953,-6330" style="fill:none; stroke-width:250; stroke:black"/>
</g>
<path d="M83173,-1839 A83333,83333 0 0 1 83173,1839" style="fill:none; stroke-width:250; stroke:black"/>
<path d="M68003,6704 A68333,68333 0 0 1 67290,11891" style="fill:none; stroke-width:250; stroke:black"/>
</g>
<line x1="-62676" y1="-27224" x2="-76434" y2="-33200" style="fill:none; stroke-width:100; stroke:black; stroke-dasharray:3000,1000,1000,1000"/>
<g transform="rotate(203.478261)">
<g transform="rotate(-5.6305)">
<polyline points="68333,0 69483,0 69622,5 69760,16 69899,30 70037,46 70176,65 70314,86 70452,108 70591,133 70729,158 70868,186 71006,215 71145,245 71283,277 71421,310 71560,344 71698,379 71836,416 71975,453 72113,492 72251,532 72389,573 72527,615 72666,659 72804,703 72942,748 73080,794 73218,841 73356,889 73494,938 73631,988 73769,1039 73907,1091 74045,1144 74182,1198 74320,1252 74458,1307 74595,1364 74732,1421 74870,1479 75007,1538 75145,1597 75282,1658 75419,1719 75556,1781 75693,1844 75830,1908 75967,1972 76104,2038 76240,2104 76377,2171 76514,2238 76650,2307 76787,2376 76923,2446 77059,2516 77196,2588 77332,2660 77468,2733 77604,2807 77740,2881 77875,2956 78011,3032 78147,3109 78282,3186 78417,3264 78553,3343 78688,3423 78823,3503 78958,3584 79093,3666 79228,3748 79362,3831 79497,3915 79632,3999 79766,4084 79900,4170 80034,4257 80168,4344 80302,4432 80436,4520 80570,4610 80703,4700 80837,4790 80970,4881 81103,4973 81236,5066 81369,5159 81502,5253 81634,5348 81767,5443 81899,5539 82031,5636 82164,5733 82296,5831 82427,5929 82559,6029 82691,6128 82822,6229 82953,6330" style="fill:none; stroke-width:250; stroke:black"/>
</g>
<g transform="rotate(5.6305)">
<polyline points="68333,0 69483,0 69622,-5 69760,-16 69899,-30 70037,-46 70176,-65 70314,-86 70452,-108 70591,-133 70729,-158 70868,-186 71006,-215 71145,-245 71283,-277 71421,-310 71560,-344 71698,-379 71836,-416 71975,-453 72113,-492 72251,-532 72389,-573 72527,-615 72666,-659 72804,-703 72942,-748 73080,-794 73218,-841 73356,-889 73494,-938 73631,-988 73769,-1039 73907,-1091 74045,-1144 74182,-1198 74320,-1252 74458,-1307 74595,-1364 74732,-1421 74870,-1479 75007,-1538 75145,-1597 75282,-1658 75419,-1719 75556,-1781 75693,-1844 75830,-1908 75967,-1972 76104,-2038 76240,-2104 76377,-2171 76514,-2238 76650,-2307 76787,-2376 76923,-2446 77059,-2516 77196,-2588 77332,-2660 77468,-2733 77604,-2807 77740,-2881 77875,-2956 78011,-3032 78147,-3109 78282,-3186 78417,-3264 78553,-3343 78688,-3423 78823,-3503 78958,-3584 79093,-3666 79228,-3748 79362,-3831 79497,-3915 79632,-3999 79766,-4084 79900,-4170 80034,-4257 80168,-4344 80302,-4432 80436,-4520 80570,-4610 80703,-4700 80837,-4790 80970,-4881 81103,-4973 81236,-5066 81369,-5159 81502,-5253 81634,-5348 81767,-5443 81899,-5539 82031,-5636 82164,-5733 82296,-5831 82427,-5929 82559,-6029 82691,-6128 82822,-6229 82953,-6330" style="fill:none; stroke-width:250; stroke:black"/>
</g>
<path d="M83173,-1839 A83333,83333 0 0 1 83173,1839" style="fill:none; stroke-width:250; stroke:black"/>
<path d="M68003,6704 A68333,68333 0 0 1 67290,11891" style="fill:none; stroke-width:250; stroke:black"/>
</g>
<line x1="-53006" y1="-43124" x2="-64642" y2="-52590" style="fill:none; stroke-width:100; stroke:black; stroke-dasharray:3000,1000,1000,1000"/>
<g transform="rotate(219.130435)">
<g transform="rotate(-5.6305)">
<polyline points="68333,0 69483,0 69622,5 69760,16 69899,30 70037,46 70176,65 70314,86 70452,108 70591,133 70729,158 70868,186 71006,215 71145,245 71283,277 71421,310 71560,344 71698,379 71836,416 71975,453 72113,492 72251,532 72389,573 72527,615 72666,659 72804,703 72942,748 73080,794 73218,841 73356,889 73494,938 73631,988 73769,1039 73907,1091 74045,1144 74182,1198 74320,1252 74458,1307 74595,1364 74732,1421 74870,1479 75007,1538 75145,1597 75282,1658 75419,1719 75556,1781 75693,1844 75830,1908 75967,1972 76104,2038 76240,2104 76377,2171 76514,2238 76650,2307 76787,2376 76923,2446 77059,2516 77196,2588 77332,2660 77468,2733 77604,2807 77740,2881 77875,2956 78011,3032 78147,3109 78282,3186 78417,3264 78553,3343 78688,3423 78823,3503 78958,3584 79093,3666 79228,3748 79362,3831 79497,3915 79632,3999 79766,4084 79900,4170 80034,4257 80168,4344 80302,4432 80436,4520 80570,4610 80703,4700 80837,4790 80970,4881 81103,4973 81236,5066 81369,5159 81502,5253 81634,5348 81767,5443 81899,5539 82031,5636 82164,5733 82296,5831 82427,5929 82559,6029 82691,6128 82822,6229 82953,6330" style="fill:none; stroke-width:250; stroke:black"/>
</g>
<g transform="rotate(5.6305)">
<polyline points="68333,0 69483,0 69622,-5 69760,-16 69899,-30 70037,-46 70176,-65 70314,-86 70452,-108 70591,-133 70729,-158 70868,-186 71006,-215 71145,-245 71283,-277 71421,-310 71560,-344 71698,-379 71836,-416 71975,-453 72113,-492 72251,-532 72389,-573 72527,-615 72666,-659 72804,-703 72942,-748 73080,-794 73218,-841 73356,-889 73494,-938 73631,-988 73769,-1039 73907,-1091 74045,-1144 74182,-1198 74320,-1252 74458,-1307 74595,-1364 74732,-1421 74870,-1479 75007,-1538 75145,-1597 75282,-1658 75419,-1719 75556,-1781 75693,-1844 75830,-1908 75967,-1972 76104,-2038 76240,-2104 76377,-2171 76514,-2238 76650,-2307 76787,-2376 76923,-2446 77059,-2516 77196,-2588 77332,-2660 77468,-2733 77604,-2807 77740,-2881 77875,-2956 78011,-3032 78147,-3109 78282,-3186 78417,-3264 78553,-3343 78688,-3423 78823,-3503 78958,-3584 79093,-3666 79228,-3748 79362,-3831 79497,-3915 79632,-3999 79766,-4084 79900,-4170 80034,-4257 80168,-4344 80302,-4432 80436,-4520 80570,-4610 80703,-4700 80837,-4790 80970,-4881 81103,-4973 81236,-5066 81369,-5159 81502,-5253 81634,-5348 81767,-5443 81899,-5539 82031,-5636 82164,-5733 82296,-5831 82427,-5929 82559,-6029 82691,-6128 82822,-6229 82953,-6330" style="fill:none; stroke-width:250; stroke:black"/>
</g>
<path d="M83173,-1839 A83333,83333 0 0 1 83173,1839" style="fill:none; stroke-width:250; stroke:black"/>
<path d="M68003,6704 A68333,68333 0 0 1 67290,11891" style="fill:none; stroke-width:250; stroke:black"/>
</g>
<line x1="-39406" y1="-55826" x2="-48056" y2="-68080" style="fill:none; stroke-width:100; stroke:black; stroke-dasharray:3000,1000,1000,1000"/>
<g transform="rotate(234.782609)">
<g transform="rotate(-5.6305)">
<polyline points="68333,0 69483,0 69622,5 69760,16 69899,30 70037,46 70176,65 70314,86 70452,108 70591,133 70729,158 70868,186 71006,215 71145,245 71283,277 71421,310 71560,344 71698,379 71836,416 71975,453 72113,492 72251,532 72389,573 72527,615 72666,659 72804,703 72942,748 73080,794 73218,841 73356,889 73494,938 73631,988 73769,1039 73907,1091 74045,1144 74182,1198 74320,1252 74458,1307 74595,1364 74732,1421 74870,1479 75007,1538 75145,1597 75282,1658 75419,1719 75556,1781 75693,1844 75830,1908 75967,1972 76104,2038 76240,2104 76377,2171 76514,2238 76650,2307 76787,2376 76923,2446 77059,2516 77196,2588 77332,2660 77468,2733 77604,2807 77740,2881 77875,2956 78011,3032 78147,3109 78282,3186 78417,3264 78553,3343 78688,3423 78823,3503 78958,3584 79093,3666 79228,3748 79362,3831 79497,3915 79632,3999 79766,4084 79900,4170 80034,4257 80168,4344 80302,4432 80436,4520 80570,4610 80703,4700 80837,4790 80970,4881 81103,4973 81236,5066 81369,5159 81502,5253 81634,5348 81767,5443 81899,5539 82031,5636 82164,5733 82296,5831 82427,5929 82559,6029 82691,6128 82822,6229 82953,6330" style="fill:none; stroke-width:250; stroke:black"/>
</g>
<g transform="rotate(5.6305)">
<polyline points="68333,0 69483,0 69622,-5 69760,-16 69899,-30 70037,-46 70176,-65 70314,-86 70452,-108 70591,-133 70729,-158 70868,-186 71006,-215 71145,-245 71283,-277 71421,-310 71560,-344 71698,-379 71836,-416 71975,-453 72113,-492 72251,-532 72389,-573 72527,-615 72666,-659 72804,-703 72942,-748 73080,-794 73218,-841 73356,-889 73494,-938 73631,-988 73769,-1039 73907,-1091 74045,-1144 74182,-1198 74320,-1252 74458,-1307 74595,-1364 74732,-1421 74870,-1479 75007,-1538 75145,-1597 75282,-1658 75419,-1719 75556,-1781 75693,-1844 75830,-1908 75967,-1972 76104,-2038 76240,-2104 76377,-2171 76514,-2238 76650,-2307 76787,-2376 76923,-2446 77059,-2516 77196,-2588 77332,-2660 77468,-2733 77604,-2807 77740,-2881 77875,-2956 78011,-3032 78147,-3109 78282,-3186 78417,-3264 78553,-3343 78688,-3423 78823,-3503 78958,-3584 79093,-3666 79228,-3748 79362,-3831 79497,-3915 79632,-3999 79766,-4084 79900,-4170 80034,-4257 80168,-4344 80302,-4432 80436,-4520 80570,-4610 80703,-4700 80837,-4790 80970,-4881 81103,-4973 81236,-5066 81369,-5159 81502,-5253 81634,-5348 81767,-5443 81899,-5539 82031,-5636 82164,-5733 82296,-5831 82427,-5929 82559,-6029 82691,-6128 82822,-6229 82953,-6330" style="fill:none; stroke-width:250; stroke:black"/>
</g>
<path d="M83173,-1839 A83333,83333 0 0 1 83173,1839" style="fill:none; stroke-width:250; stroke:black"/>
<path d="M68003,6704 A68333,68333 0 0 1 67290,11891" style="fill:none; stroke-width:250; stroke:black"/>
</g>
<line x1="-22883" y1="-64387" x2="-27906" y2="-78521" style="fill:none; stroke-width:100; stroke:black; stroke-dasharray:3000,1000,1000,1000"/>
<g transform="rotate(250.434783)">
<g transform="rotate(-5.6305)">
<polyline points="68333,0 69483,0 69622,5 69760,16 69899,30 70037,46 70176,65 70314,86 70452,108 70591,133 70729,158 70868,186 71006,215 71145,245 71283,277 71421,310 71560,344 71698,379 71836,416 71975,453 72113,492 72251,532 72389,573 72527,615 72666,659 72804,703 72942,748 73080,794 73218,841 73356,889 73494,938 73631,988 73769,1039 73907,1091 74045,1144 74182,1198 74320,1252 74458,1307 74595,1364 74732,1421 74870,1479 75007,1538 75145,1597 75282,1658 75419,1719 75556,1781 75693,1844 75830,1908 75967,1972 76104,2038 76240,2104 76377,2171 76514,2238 76650,2307 76787,2376 76923,2446 77059,2516 77196,2588 77332,2660 77468,2733 77604,2807 77740,2881 77875,2956 78011,3032 78147,3109 78282,3186 78417,3264 78553,3343 78688,3423 78823,3503 78958,3584 79093,3666 79228,3748 79362,3831 79497,3915 79632,3999 79766,4084 79900,4170 80034,4257 80168,4344 80302,4432 80436,4520 80570,4610 80703,4700 80837,4790 80970,4881 81103,4973 81236,5066 81369,5159 81502,5253 81634,5348 81767,5443 81899,5539 82031,5636 82164,5733 82296,5831 82427,5929 82559,6029 82691,6128 82822,6229 82953,6330" style="fill:none; stroke-width:250; stroke:black"/>
</g>
<g transform="rotate(5.6305)">
<polyline points="68333,0 69483,0 69622,-5 69760,-16 69899,-30 70037,-46 70176,-65 70314,-86 70452,-108 70591,-133 70729,-158 70868,-186 71006,-215 71145,-245 71283,-277 71421,-310 71560,-344 71698,-379 71836,-416 71975,-453 72113,-492 72251,-532 72389,-573 72527,-615 72666,-659 72804,-703 72942,-748 73080,-794 73218,-841 73356,-889 73494,-938 73631,-988 73769,-1039 73907,-1091 74045,-1144 74182,-1198 74320,-1252 74458,-1307 74595,-1364 74732,-1421 74870,-1479 75007,-1538 75145,-1597 75282,-1658 75419,-1719 75556,-1781 75693,-1844 75830,-1908 75967,-1972 76104,-2038 76240,-2104 76377,-2171 76514,-2238 76650,-2307 76787,-2376 76923,-2446 77059,-2516 77196,-2588 77332,-2660 77468,-2733 77604,-2807 77740,-2881 77875,-2956 78011,-3032 78147,-3109 78282,-3186 78417,-3264 78553,-3343 78688,-3423 78823,-3503 78958,-3584 79093,-3666 79228,-3748 79362,-3831 79497,-3915 79632,-3999 79766,-4084 79900,-4170 80034,-4257 80168,-4344 80302,-4432 80436,-4520 80570,-4610 80703,-4700 80837,-4790 80970,-4881 81103,-4973 81236,-5066 81369,-5159 81502,-5253 81634,-5348 81767,-5443 81899,-5539 82031,-5636 82164,-5733 82296,-5831 82427,-5929 82559,-6029 82691,-6128 82822,-6229 82953,-6330" style="fill:none; stroke-width:250; stroke:black"/>
</g>
<path d="M83173,-1839 A83333,83333 0 0 1 83173,1839" style="fill:none; stroke-width:250; stroke:black"/>
<path d="M68003,6704 A68333,68333 0 0 1 67290,11891" style="fill:none; stroke-width:250; stroke:black"/>
</g>
<line x1="-4663" y1="-68174" x2="-5686" y2="-83139" style="fill:none; stroke-width:100; stroke:black; stroke-dasharray:3000,1000,1000,1000"/>
<g transform="rotate(266.086957)">
<g transform="rotate(-5.6305)">
<polyline points="68333,0 69483,0 69622,5 69760,16 69899,30 70037,46 70176,65 70314,86 70452,108 70591,133 70729,158 70868,186 71006,215 71145,245 71283,277 71421,310 71560,344 71698,379 71836,416 71975,453 72113,492 72251,532 72389,573 72527,615 72666,659 72804,703 72942,748 73080,794 73218,841 73356,889 73494,938 73631,988 73769,1039 73907,1091 74045,1144 74182,1198 74320,1252 74458,1307 74595,1364 74732,1421 74870,1479 75007,1538 75145,1597 75282,1658 75419,1719 75556,1781 75693,1844 75830,1908 75967,1972 76104,2038 76240,2104 76377,2171 76514,2238 76650,2307 76787,2376 76923,2446 77059,2516 77196,2588 77332,2660 77468,2733 77604,2807 77740,2881 77875,2956 78011,3032 78147,3109 78282,3186 78417,3264 78553,3343 78688,3423 78823,3503 78958,3584 79093,3666 79228,3748 79362,3831 79497,3915 79632,3999 79766,4084 79900,4170 80034,4257 80168,4344 80302,4432 80436,4520 80570,4610 80703,4700 80837,4790 80970,4881 81103,4973 81236,5066 81369,5159 81502,5253 81634,5348 81767,5443 81899,5539 82031,5636 82164,5733 82296,5831 82427,5929 82559,6029 82691,6128 82822,6229 82953,6330" style="fill:none; stroke-width:250; stroke:black"/>
</g>
<g transform="rotate(5.6305)">
<polyline points="68333,0 69483,0 69622,-5 69760,-16 69899,-30 70037,-46 70176,-65 70314,-86 70452,-108 70591,-133 70729,-158 70868,-186 71006,-215 71145,-245 71283,-277 71421,-310 71560,-344 71698,-379 71836,-416 71975,-453 72113,-492 72251,-532 72389,-573 72527,-615 72666,-659 72804,-703 72942,-748 73080,-794 73218,-841 73356,-889 73494,-938 73631,-988 73769,-1039 73907,-1091 74045,-1144 74182,-1198 74320,-1252 74458,-1307 74595,-1364 74732,-1421 74870,-1479 75007,-1538 75145,-1597 75282,-1658 75419,-1719 75556,-1781 75693,-1844 75830,-1908 75967,-1972 76104,-2038 76240,-2104 76377,-2171 76514,-2238 76650,-2307 76787,-2376 76923,-2446 77059,-2516 77196,-2588 77332,-2660 77468,-2733 77604,-2807 77740,-2881 77875,-2956 78011,-3032 78147,-3109 78282,-3186 78417,-3264 78553,-3343 78688,-3423 78823,-3503 78958,-3584 79093,-3666 79228,-3748 79362,-3831 79497,-3915 79632,-3999 79766,-4084 79900,-4170 80034,-4257 80168,-4344 80302,-4432 80436,-4520 80570,-4610 80703,-4700 80837,-4790 80970,-4881 81103,-4973 81236,-5066 81369,-5159 81502,-5253 81634,-5348 81767,-5443 81899,-5539 82031,-5636 82164,-5733 82296,-5831 82427,-5929 82559,-6029 82691,-6128 82822,-6229 82953,-6330" style="fill:none; stroke-width:250; stroke:black"/>
</g>
<path d="M83173,-1839 A83333,83333 0 0 1 83173,1839" style="fill:none; stroke-width:250; stroke:black"/>
<path d="M68003,6704 A68333,68333 0 0 1 67290,11891" style="fill:none; stroke-width:250; stroke:black"/>
</g>
<line x1="13902" y1="-66904" x2="16954" y2="-81590" style="fill:none; stroke-width:100; stroke:black; stroke-dasharray:3000,1000,1000,1000"/>
<g transform="rotate(281.739130)">
<g transform="rotate(-5.6305)">
<polyline points="68333,0 69483,0 69622,5 69760,16 69899,30 70037,46 70176,65 70314,86 70452,108 70591,133 70729,158 70868,186 71006,215 71145,245 71283,277 71421,310 71560,344 71698,379 71836,416 71975,453 72113,492 72251,532 72389,573 72527,615 72666,659 72804,703 72942,748 73080,794 73218,841 73356,889 73494,938 73631,988 73769,1039 73907,1091 74045,1144 74182,1198 74320,1252 74458,1307 74595,1364 74732,1421 74870,1479 75007,1538 75145,1597 75282,1658 75419,1719 75556,1781 75693,1844 75830,1908 75967,1972 76104,2038 76240,2104 76377,2171 76514,2238 76650,2307 76787,2376 76923,2446 77059,2516 77196,2588 77332,2660 77468,2733 77604,2807 77740,2881 77875,2956 78011,3032 78147,3109 78282,3186 78417,3264 78553,3343 78688,3423 78823,3503 78958,3584 79093,3666 79228,3748 79362,3831 79497,3915 79632,3999 79766,4084 79900,4170 80034,4257 80168,4344 80302,4432 80436,4520 80570,4610 80703,4700 80837,4790 80970,4881 81103,4973 81236,5066 81369,5159 81502,5253 81634,5348 81767,5443 81899,5539 82031,5636 82164,5733 82296,5831 82427,5929 82559,6029 82691,6128 82822,6229 82953,6330" style="fill:none; stroke-width:250; stroke:black"/>
</g>
<g transform="rotate(5.6305)">
<polyline points="68333,0 69483,0 69622,-5 69760,-16 69899,-30 70037,-46 70176,-65 70314,-86 70452,-108 70591,-133 70729,-158 70868,-186 71006,-215 71145,-245 71283,-277 71421,-310 71560,-344 71698,-379 71836,-416 71975,-453 72113,-492 72251,-532 72389,-573 72527,-615 72666,-659 72804,-703 72942,-748 73080,-794 73218,-841 73356,-889 73494,-938 73631,-988 73769,-1039 73907,-1091 74045,-1144 74182,-1198 74320,-1252 74458,-1307 74595,-1364 74732,-1421 74870,-1479 75007,-1538 75145,-1597 75282,-1658 75419,-1719 75556,-1781 75693,-1844 75830,-1908 75967,-1972 76104,-2038 76240,-2104 76377,-2171 76514,-2238 76650,-2307 76787,-2376 76923,-2446 77059,-2516 77196,-2588 77332,-2660 77468,-2733 77604,-2807 77740,-2881 77875,-2956 78011,-3032 78147,-3109 78282,-3186 78417,-3264 78553,-3343 78688,-3423 78823,-3503 78958,-3584 79093,-3666 79228,-3748 79362,-3831 79497,-3915 79632,-3999 79766,-4084 79900,-4170 80034,-4257 80168,-4344 80302,-4432 80436,-4520 80570,-4610 80703,-4700 80837,-4790 80970,-4881 81103,-4973 81236,-5066 81369,-5159 81502,-5253 81634,-5348 81767,-5443 81899,-5539 82031,-5636 82164,-5733 82296,-5831 82427,-5929 82559,-6029 82691,-6128 82822,-6229 82953,-6330" style="fill:none; stroke-width:250; stroke:black"/>
</g>
<path d="M83173,-1839 A83333,83333 0 0 1 83173,1839" style="fill:none; stroke-width:250; stroke:black"/>
<path d="M68003,6704 A68333,68333 0 0 1 67290,11891" style="fill:none; stroke-width:250; stroke:black"/>
</g>
<line x1="31437" y1="-60672" x2="38338" y2="-73990" style="fill:none; stroke-width:100; stroke:black; stroke-dasharray:3000,1000,1000,1000"/>
<g transform="rotate(297.391304)">
<g transform="rotate(-5.6305)">
<polyline points="68333,0 69483,0 69622,5 69760,16 69899,30 70037,46 70176,65 70314,86 70452,108 70591,133 70729,158 70868,186 71006,215 71145,245 71283,277 71421,310 71560,344 71698,379 71836,416 71975,453 72113,492 72251,532 72389,573 72527,615 72666,659 72804,703 72942,748 73080,794 73218,841 73356,889 73494,938 73631,988 73769,1039 73907,1091 74045,1144 74182,1198 74320,1252 74458,1307 74595,1364 74732,1421 74870,1479 75007,1538 75145,1597 75282,1658 75419,1719 75556,1781 75693,1844 75830,1908 75967,1972 76104,2038 76240,2104 76377,2171 76514,2238 76650,2307 76787,2376 76923,2446 77059,2516 77196,2588 77332,2660 77468,2733 77604,2807 77740,2881 77875,2956 78011,3032 78147,3109 78282,3186 78417,3264 78553,3343 78688,3423 78823,3503 78958,3584 79093,3666 79228,3748 79362,3831 79497,3915 79632,3999 79766,4084 79900,4170 80034,4257 80168,4344 80302,4432 80436,4520 80570,4610 80703,4700 80837,4790 80970,4881 81103,4973 81236,5066 81369,5159 81502,5253 81634,5348 81767,5443 81899,5539 82031,5636 82164,5733 82296,5831 82427,5929 82559,6029 82691,6128 82822,6229 82953,6330" style="fill:none; stroke-width:250; stroke:black"/>
</g>
<g transform="rotate(5.6305)">
<polyline points="68333,0 69483,0 69622,-5 69760,-16 69899,-30 70037,-46 70176,-65 70314,-86 70452,-108 70591,-133 70729,-158 70868,-186 71006,-215 71145,-245 71283,-277 71421,-310 71560,-344 71698,-379 71836,-416 71975,-453 72113,-492 72251,-532 72389,-573 72527,-615 72666,-659 72804,-703 72942,-748 73080,-794 73218,-841 73356,-889 73494,-938 73631,-988 73769,-1039 73907,-1091 74045,-1144 74182,-1198 74320,-1252 74458,-1307 74595,-1364 74732,-1421 74870,-1479 75007,-1538 75145,-1597 75282,-1658 75419,-1719 75556,-1781 75693,-1844 75830,-1908 75967,-1972 76104,-2038 76240,-2104 76377,-2171 76514,-2238 76650,-2307 76787,-2376 76923,-2446 77059,-2516 77196,-2588 77332,-2660 77468,-2733 77604,-2807 77740,-2881 77875,-2956 78011,-3032 78147,-3109 78282,-3186 78417,-3264 78553,-3343 78688,-3423 78823,-3503 78958,-3584 79093,-3666 79228,-3748 79362,-3831 79497,-3915 79632,-3999 79766,-4084 79900,-4170 80034,-4257 80168,-4344 80302,-4432 80436,-4520 80570,-4610 80703,-4700 80837,-4790 80970,-4881 81103,-4973 81236,-5066 81369,-5159 81502,-5253 81634,-5348 81767,-5443 81899,-5539 82031,-5636 82164,-5733 82296,-5831 82427,-5929 82559,-6029 82691,-6128 82822,-6229 82953,-6330" style="fill:none; stroke-width:250; stroke:black"/>
</g>
<path d="M83173,-1839 A83333,83333 0 0 1 83173,1839" style="fill:none; stroke-width:250; stroke:black"/>
<path d="M68003,6704 A68333,68333 0 0 1 67290,11891" style="fill:none; stroke-width:250; stroke:black"/>
</g>
<line x1="46641" y1="-49940" x2="56879" y2="-60902" style="fill:none; stroke-width:100; stroke:black; stroke-dasharray:3000,1000,1000,1000"/>
<g transform="rotate(313.043478)">
<g transform="rotate(-5.6305)">
<polyline points="68333,0 69483,0 69622,5 69760,16 69899,30 70037,46 70176,65 70314,86 70452,108 70591,133 70729,158 70868,186 71006,215 71145,245 71283,277 71421,310 71560,344 71698,379 71836,416 71975,453 72113,492 72251,532 72389,573 72527,615 72666,659 72804,703 72942,748 73080,794 73218,841 73356,889 73494,938 73631,988 73769,1039 73907,1091 74045,1144 74182,1198 74320,1252 74458,1307 74595,1364 74732,1421 74870,1479 75007,1538 75145,1597 75282,1658 75419,1719 75556,1781 75693,1844 75830,1908 75967,1972 76104,2038 76240,2104 76377,2171 76514,2238 76650,2307 76787,2376 76923,2446 77059,2516 77196,2588 77332,2660 77468,2733 77604,2807 77740,2881 77875,2956 78011,3032 78147,3109 78282,3186 78417,3264 78553,3343 78688,3423 78823,3503 78958,3584 79093,3666 79228,3748 79362,3831 79497,3915 79632,3999 79766,4084 79900,4170 80034,4257 80168,4344 80302,4432 80436,4520 80570,4610 80703,4700 80837,4790 80970,4881 81103,4973 81236,5066 81369,5159 81502,5253 81634,5348 81767,5443 81899,5539 82031,5636 82164,5733 82296,5831 82427,5929 82559,6029 82691,6128 82822,6229 82953,6330" style="fill:none; stroke-width:250; stroke:black"/>
</g>
<g transform="rotate(5.6305)">
<polyline points="68333,0 69483,0 69622,-5 69760,-16 69899,-30 70037,-46 70176,-65 70314,-86 70452,-108 70591,-133 70729,-158 70868,-186 71006,-215 71145,-245 71283,-277 71421,-310 71560,-344 71698,-379 71836,-416 71975,-453 72113,-492 72251,-532 72389,-573 72527,-615 72666,-659 72804,-703 72942,-748 73080,-794 73218,-841 73356,-889 73494,-938 73631,-988 73769,-1039 73907,-1091 74045,-1144 74182,-1198 74320,-1252 74458,-1307 74595,-1364 74732,-1421 74870,-1479 75007,-1538 75145,-1597 75282,-1658 75419,-1719 75556,-1781 75693,-1844 75830,-1908 75967,-1972 76104,-2038 76240,-2104 76377,-2171 76514,-2238 76650,-2307 76787,-2376 76923,-2446 77059,-2516 77196,-2588 77332,-2660 77468,-2733 77604,-2807 77740,-2881 77875,-2956 78011,-3032 78147,-3109 78282,-3186 78417,-3264 78553,-3343 78688,-3423 78823,-3503 78958,-3584 79093,-3666 79228,-3748 79362,-3831 79497,-3915 79632,-3999 79766,-4084 79900,-4170 80034,-4257 80168,-4344 80302,-4432 80436,-4520 80570,-4610 80703,-4700 80837,-4790 80970,-4881 81103,-4973 81236,-5066 81369,-5159 81502,-5253 81634,-5348 81767,-5443 81899,-5539 82031,-5636 82164,-5733 82296,-5831 82427,-5929 82559,-6029 82691,-6128 82822,-6229 82953,-6330" style="fill:none; stroke-width:250; stroke:black"/>
</g>
<path d="M83173,-1839 A83333,83333 0 0 1 83173,1839" style="fill:none; stroke-width:250; stroke:black"/>
<path d="M68003,6704 A68333,68333 0 0 1 67290,11891" style="fill:none; stroke-width:250; stroke:black"/>
</g>
<line x1="58385" y1="-35504" x2="71201" y2="-43298" style="fill:none; stroke-width:100; stroke:black; stroke-dasharray:3000,1000,1000,1000"/>
<g transform="rotate(328.695652)">
<g transform="rotate(-5.6305)">
<polyline points="68333,0 69483,0 69622,5 69760,16 69899,30 70037,46 70176,65 70314,86 70452,108 70591,133 70729,158 70868,186 71006,215 71145,245 71283,277 71421,310 71560,344 71698,379 71836,416 71975,453 72113,492 72251,532 72389,573 72527,615 72666,659 72804,703 72942,748 73080,794 73218,841 73356,889 73494,938 73631,988 73769,1039 73907,1091 74045,1144 74182,1198 74320,1252 74458,1307 74595,1364 74732,1421 74870,1479 75007,1538 75145,1597 75282,1658 75419,1719 75556,1781 75693,1844 75830,1908 75967,1972 76104,2038 76240,2104 76377,2171 76514,2238 76650,2307 76787,2376 76923,2446 77059,2516 77196,2588 77332,2660 77468,2733 77604,2807 77740,2881 77875,2956 78011,3032 78147,3109 78282,3186 78417,3264 78553,3343 78688,3423 78823,3503 78958,3584 79093,3666 79228,3748 79362,3831 79497,3915 79632,3999 79766,4084 79900,4170 80034,4257 80168,4344 80302,4432 80436,4520 80570,4610 80703,4700 80837,4790 80970,4881 81103,4973 81236,5066 81369,5159 81502,5253 81634,5348 81767,5443 81899,5539 82031,5636 82164,5733 82296,5831 82427,5929 82559,6029 82691,6128 82822,6229 82953,6330" style="fill:none; stroke-width:250; stroke:black"/>
</g>
<g transform="rotate(5.6305)">
<polyline points="68333,0 69483,0 69622,-5 69760,-16 69899,-30 70037,-46 70176,-65 70314,-86 70452,-108 70591,-133 70729,-158 70868,-186 71006,-215 71145,-245 71283,-277 71421,-310 71560,-344 71698,-379 71836,-416 71975,-453 72113,-492 72251,-532 72389,-573 72527,-615 72666,-659 72804,-703 72942,-748 73080,-794 73218,-841 73356,-889 73494,-938 73631,-988 73769,-1039 73907,-1091 74045,-1144 74182,-1198 74320,-1252 74458,-1307 74595,-1364 74732,-1421 74870,-1479 75007,-1538 75145,-1597 75282,-1658 75419,-1719 75556,-1781 75693,-1844 75830,-1908 75967,-1972 76104,-2038 76240,-2104 76377,-2171 76514,-2238 76650,-2307 76787,-2376 76923,-2446 77059,-2516 77196,-2588 77332,-2660 77468,-2733 77604,-2807 77740,-2881 77875,-2956 78011,-3032 78147,-3109 78282,-3186 78417,-3264 78553,-3343 78688,-3423 78823,-3503 78958,-3584 79093,-3666 79228,-3748 79362,-3831 79497,-3915 79632,-3999 79766,-4084 79900,-4170 80034,-4257 80168,-4344 80302,-4432 80436,-4520 80570,-4610 80703,-4700 80837,-4790 80970,-4881 81103,-4973 81236,-5066 81369,-5159 81502,-5253 81634,-5348 81767,-5443 81899,-5539 82031,-5636 82164,-5733 82296,-5831 82427,-5929 82559,-6029 82691,-6128 82822,-6229 82953,-6330" style="fill:none; stroke-width:250; stroke:black"/>
</g>
<path d="M83173,-1839 A83333,83333 0 0 1 83173,1839" style="fill:none; stroke-width:250; stroke:black"/>
<path d="M68003,6704 A68333,68333 0 0 1 67290,11891" style="fill:none; stroke-width:250; stroke:black"/>
</g>
<line x1="65799" y1="-18436" x2="80243" y2="-22483" style="fill:none; stroke-width:100; stroke:black; stroke-dasharray:3000,1000,1000,1000"/>
<g transform="rotate(344.347826)">
<g transform="rotate(-5.6305)">
<polyline points="68333,0 69483,0 69622,5 69760,16 69899,30 70037,46 70176,65 70314,86 70452,108 70591,133 70729,158 70868,186 71006,215 71145,245 71283,277 71421,310 71560,344 71698,379 71836,416 71975,453 72113,492 72251,532 72389,573 72527,615 72666,659 72804,703 72942,748 73080,794 73218,841 73356,889 73494,938 73631,988 73769,1039 73907,1091 74045,1144 74182,1198 74320,1252 74458,1307 74595,1364 74732,1421 74870,1479 75007,1538 75145,1597 75282,1658 75419,1719 75556,1781 75693,1844 75830,1908 75967,1972 76104,2038 76240,2104 76377,2171 76514,2238 76650,2307 76787,2376 76923,2446 77059,2516 77196,2588 77332,2660 77468,2733 77604,2807 77740,2881 77875,2956 78011,3032 78147,3109 78282,3186 78417,3264 78553,3343 78688,3423 78823,3503 78958,3584 79093,3666 79228,3748 79362,3831 79497,3915 79632,3999 79766,4084 79900,4170 80034,4257 80168,4344 80302,4432 80436,4520 80570,4610 80703,4700 80837,4790 80970,4881 81103,4973 81236,5066 81369,5159 81502,5253 81634,5348 81767,5443 81899,5539 82031,5636 82164,5733 82296,5831 82427,5929 82559,6029 82691,6128 82822,6229 82953,6330" style="fill:none; stroke-width:250; stroke:black"/>
</g>
<g transform="rotate(5.6305)">
<polyline points="68333,0 69483,0 69622,-5 69760,-16 69899,-30 70037,-46 70176,-65 70314,-86 70452,-108 70591,-133 70729,-158 70868,-186 71006,-215 71145,-245 71283,-277 71421,-310 71560,-344 71698,-379 71836,-416 71975,-453 72113,-492 72251,-532 72389,-573 72527,-615 72666,-659 72804,-703 72942,-748 73080,-794 73218,-841 73356,-889 73494,-938 73631,-988 73769,-1039 73907,-1091 74045,-1144 74182,-1198 74320,-1252 74458,-1307 74595,-1364 74732,-1421 74870,-1479 75007,-1538 75145,-1597 75282,-1658 75419,-1719 75556,-1781 75693,-1844 75830,-1908 75967,-1972 76104,-2038 76240,-2104 76377,-2171 76514,-2238 76650,-2307 76787,-2376 76923,-2446 77059,-2516 77196,-2588 77332,-2660 77468,-2733 77604,-2807 77740,-2881 77875,-2956 78011,-3032 78147,-3109 78282,-3186 78417,-3264 78553,-3343 78688,-3423 78823,-3503 78958,-3584 79093,-3666 79228,-3748 79362,-3831 79497,-3915 79632,-3999 79766,-4084 79900,-4170 80034,-4257 80168,-4344 80302,-4432 80436,-4520 80570,-4610 80703,-4700 80837,-4790 80970,-4881 81103,-4973 81236,-5066 81369,-5159 81502,-5253 81634,-5348 81767,-5443 81899,-5539 82031,-5636 82164,-5733 82296,-5831 82427,-5929 82559,-6029 82691,-6128 82822,-6229 82953,-6330" style="fill:none; stroke-width:250; stroke:black"/>
</g>
<path d="M83173,-1839 A83333,83333 0 0 1 83173,1839" style="fill:none; stroke-width:250; stroke:black"/>
<path d="M68003,6704 A68333,68333 0 0 1 67290,11891" style="fill:none; stroke-width:250; stroke:black"/>
</g>
</g>
</g>
</svg>
